<?xml version="1.0" encoding="UTF-8"?>
<svg id="_图层_2" data-name="图层 2" xmlns="http://www.w3.org/2000/svg" xmlns:xlink="http://www.w3.org/1999/xlink" viewBox="0 0 392.5 126.67">
  <defs>
    <style>
      .cls-1 {
        fill: #1d7274;
      }

      .cls-2 {
        clip-path: url(#clippath-20);
      }

      .cls-3 {
        fill: #dbb9a2;
      }

      .cls-4 {
        clip-path: url(#clippath-11);
      }

      .cls-5 {
        clip-path: url(#clippath-16);
      }

      .cls-6 {
        fill: #fff;
      }

      .cls-7 {
        fill: #af871e;
      }

      .cls-8 {
        fill: #df462d;
      }

      .cls-9 {
        fill: #e5c7b4;
      }

      .cls-10 {
        fill: #4f5152;
      }

      .cls-11 {
        fill: #7b2d1e;
      }

      .cls-12 {
        fill: #221e1f;
      }

      .cls-13 {
        fill: #b164f4;
      }

      .cls-14 {
        fill: #2a2b2b;
      }

      .cls-15 {
        clip-path: url(#clippath-2);
      }

      .cls-16 {
        clip-path: url(#clippath-13);
      }

      .cls-17 {
        fill: #51a885;
      }

      .cls-18 {
        fill: #997526;
      }

      .cls-19 {
        fill: #040000;
      }

      .cls-20 {
        fill: #287486;
      }

      .cls-21 {
        fill: #a04124;
      }

      .cls-22 {
        clip-path: url(#clippath-15);
      }

      .cls-23 {
        clip-path: url(#clippath-6);
      }

      .cls-24 {
        fill: url(#_未命名的渐变_13);
      }

      .cls-25 {
        fill: #708955;
      }

      .cls-26 {
        fill: #5db6ce;
      }

      .cls-27 {
        fill: #b88c18;
      }

      .cls-28 {
        clip-path: url(#clippath-7);
      }

      .cls-29 {
        clip-path: url(#clippath-21);
      }

      .cls-30 {
        fill: #ae8499;
      }

      .cls-31 {
        clip-path: url(#clippath-1);
      }

      .cls-32 {
        clip-path: url(#clippath-4);
      }

      .cls-33 {
        fill: #358d8f;
      }

      .cls-34 {
        fill: #f39718;
      }

      .cls-35 {
        fill: #2aa5a6;
      }

      .cls-36 {
        fill: #95bb6a;
      }

      .cls-37 {
        clip-path: url(#clippath-12);
      }

      .cls-38 {
        fill: #8f8f8f;
      }

      .cls-39 {
        fill: #512e41;
      }

      .cls-40 {
        fill: #db418d;
      }

      .cls-41 {
        fill: #e38210;
      }

      .cls-42 {
        fill: #c24e1d;
      }

      .cls-43 {
        opacity: .99;
      }

      .cls-44 {
        fill: #9d9fa0;
      }

      .cls-45 {
        fill: #896550;
      }

      .cls-46 {
        fill: #135c5d;
      }

      .cls-47 {
        fill: #dbc130;
      }

      .cls-48 {
        fill: #464646;
      }

      .cls-49 {
        clip-path: url(#clippath-9);
      }

      .cls-50 {
        clip-path: url(#clippath);
      }

      .cls-51 {
        fill: #ebebeb;
      }

      .cls-52 {
        fill: #916078;
      }

      .cls-53 {
        fill: none;
      }

      .cls-54 {
        fill: #efa035;
      }

      .cls-55 {
        fill: #715725;
      }

      .cls-56 {
        clip-path: url(#clippath-19);
      }

      .cls-57 {
        clip-path: url(#clippath-3);
      }

      .cls-58 {
        fill: #33755b;
      }

      .cls-59 {
        opacity: .1;
      }

      .cls-60 {
        fill: #c5a71f;
      }

      .cls-61 {
        fill: #886550;
      }

      .cls-62 {
        clip-path: url(#clippath-8);
      }

      .cls-63 {
        fill: #58733b;
      }

      .cls-64 {
        fill: #714b5d;
      }

      .cls-65 {
        fill: #6fc0a0;
      }

      .cls-66 {
        fill: #cc9db4;
      }

      .cls-67 {
        fill: #718a54;
      }

      .cls-68 {
        opacity: .2;
      }

      .cls-69 {
        clip-path: url(#clippath-18);
      }

      .cls-70 {
        fill: #4fa2a3;
      }

      .cls-71 {
        clip-path: url(#clippath-14);
      }

      .cls-72 {
        fill: #816227;
      }

      .cls-73 {
        clip-path: url(#clippath-17);
      }

      .cls-74 {
        clip-path: url(#clippath-5);
      }

      .cls-75 {
        fill: #3a97af;
      }

      .cls-76 {
        fill: #425e2e;
      }

      .cls-77 {
        clip-path: url(#clippath-10);
      }

      .cls-78 {
        fill: #31899f;
      }

      .cls-79 {
        fill: #6d6f72;
      }

      .cls-80 {
        fill: #68b8e7;
      }

      .cls-81 {
        fill: #c4c4c4;
      }

      .cls-82 {
        fill: #dddddc;
      }

      .cls-83 {
        fill: #6ec1c3;
      }

      .cls-84 {
        fill: #bf9478;
      }

      .cls-85 {
        fill: #ecd05f;
      }
    </style>
    <clipPath id="clippath">
      <rect class="cls-53" y="0" width="392.5" height="117" rx="16.53" ry="16.53"/>
    </clipPath>
    <radialGradient id="_未命名的渐变_13" data-name="未命名的渐变 13" cx="1168.65" cy="-645.75" fx="1168.65" fy="-645.75" r="115.83" gradientTransform="translate(-521.58 -456.48) rotate(90.44) scale(.44 1.02)" gradientUnits="userSpaceOnUse">
      <stop offset="0" stop-color="#e2d4ff"/>
      <stop offset="1" stop-color="#b164f4"/>
    </radialGradient>
    <clipPath id="clippath-1">
      <rect class="cls-53" x="312.56" y="-43.08" width="74.33" height="74.33"/>
    </clipPath>
    <clipPath id="clippath-2">
      <rect class="cls-53" x="4.37" y="95.62" width="74.33" height="74.33"/>
    </clipPath>
    <clipPath id="clippath-3">
      <rect class="cls-53" x="375.06" y="22.87" width="74.33" height="74.33"/>
    </clipPath>
    <clipPath id="clippath-4">
      <rect class="cls-53" x="25.87" y="-56.13" width="74.33" height="74.33"/>
    </clipPath>
    <clipPath id="clippath-5">
      <rect class="cls-53" x="54.15" y="59.17" width="100.41" height="100.41"/>
    </clipPath>
    <clipPath id="clippath-6">
      <rect class="cls-53" x="203.56" y="-77.96" width="100.41" height="100.41"/>
    </clipPath>
    <clipPath id="clippath-7">
      <rect class="cls-53" x="-69.94" y="70.94" width="100.41" height="100.41"/>
    </clipPath>
    <clipPath id="clippath-8">
      <rect class="cls-53" x="70.9" y="102.53" width="100.41" height="100.41"/>
    </clipPath>
    <clipPath id="clippath-9">
      <rect class="cls-53" x="185.9" y="102.53" width="100.41" height="100.41"/>
    </clipPath>
    <clipPath id="clippath-10">
      <rect class="cls-53" x="238.22" y="-51.42" width="100.41" height="100.41"/>
    </clipPath>
    <clipPath id="clippath-11">
      <rect class="cls-53" x="241.94" y="87.02" width="100.41" height="100.41"/>
    </clipPath>
    <clipPath id="clippath-12">
      <rect class="cls-53" x="10.56" y="30.98" width="19.33" height="19.33"/>
    </clipPath>
    <clipPath id="clippath-13">
      <rect class="cls-53" x="369.23" y="12.31" width="19.33" height="19.33"/>
    </clipPath>
    <clipPath id="clippath-14">
      <rect class="cls-53" x="350.56" y="97.65" width="19.33" height="19.33"/>
    </clipPath>
    <clipPath id="clippath-15">
      <rect class="cls-53" x="82.56" y="4.15" width="19.33" height="19.33"/>
    </clipPath>
    <clipPath id="clippath-16">
      <rect class="cls-53" y="117" width="196" height="9.67"/>
    </clipPath>
    <clipPath id="clippath-17">
      <rect class="cls-53" x="196.5" y="117" width="196" height="9.67"/>
    </clipPath>
    <clipPath id="clippath-18">
      <rect class="cls-53" x="14.33" y="23.15" width="78.23" height="78.23" transform="translate(-10.34 113.88) rotate(-88.34)"/>
    </clipPath>
    <clipPath id="clippath-19">
      <rect class="cls-53" x="73.23" y="24.15" width="76.23" height="76.23"/>
    </clipPath>
    <clipPath id="clippath-20">
      <rect class="cls-53" x="123.18" y="23.08" width="76.54" height="76.54"/>
    </clipPath>
    <clipPath id="clippath-21">
      <rect class="cls-53" x="187.18" y="34.99" width="64.43" height="64.43"/>
    </clipPath>
  </defs>
  <g id="_图层_2-2" data-name=" 图层 2">
    <g id="_图层_1-2" data-name=" 图层 1-2">
      <rect class="cls-13" width="392.5" height="117" rx="13.4" ry="13.4"/>
      <g class="cls-50">
        <g>
          <path class="cls-35" d="M381.71-33.85l-59.92,59.92c-2.81,2.81-7.38,2.81-10.19,0s-2.82-7.38,0-10.19l59.92-59.92c2.81-2.82,7.38-2.82,10.19,0s2.81,7.38,0,10.19"/>
          <path class="cls-35" d="M147.56,71.64l-80.94,80.94c-3.8,3.8-9.96,3.8-13.76,0h0c-3.8-3.81-3.8-9.97,0-13.77L133.8,57.87c3.8-3.8,9.96-3.8,13.76,0h0c3.8,3.81,3.8,9.97,0,13.77"/>
          <path class="cls-24" d="M236.85,105.74l-137.83,2.35c-6.63,0-81.84-7.72-81.84-14.35V33.42c0-6.63-3.43-21.39,3.2-21.39l228.21-.59c6.63,0,.26,14.76,.26,21.39v60.92c0,6.63,2.85,22.56-3.78,22.56"/>
          <path class="cls-54" d="M296.97-65.48L216.03,15.46c-3.8,3.8-9.96,3.8-13.76,0h0c-3.8-3.81-3.8-9.97,0-13.77l80.94-80.94c3.8-3.8,9.96-3.8,13.76,0h0c3.8,3.81,3.8,9.97,0,13.77"/>
          <path class="cls-40" d="M23.47,83.41L-57.47,164.36c-3.8,3.8-9.96,3.8-13.76,0h0c-3.8-3.81-3.8-9.97,0-13.77L9.71,69.64c3.8-3.8,9.96-3.8,13.76,0h0c3.8,3.81,3.8,9.97,0,13.77"/>
          <path class="cls-40" d="M164.31,115l-80.94,80.94c-3.8,3.8-9.96,3.8-13.76,0h0c-3.8-3.81-3.8-9.97,0-13.77l80.94-80.94c3.8-3.8,9.96-3.8,13.76,0h0c3.8,3.81,3.8,9.97,0,13.77"/>
          <path class="cls-40" d="M279.32,115l-80.94,80.94c-3.8,3.8-9.96,3.8-13.76,0h0c-3.8-3.81-3.8-9.97,0-13.77l80.94-80.94c3.8-3.8,9.96-3.8,13.76,0h0c3.8,3.81,3.8,9.97,0,13.77"/>
          <path class="cls-80" d="M331.64-38.95L250.7,41.99c-3.8,3.8-9.96,3.8-13.76,0h0c-3.8-3.81-3.8-9.97,0-13.77l80.93-80.93c3.8-3.8,9.96-3.8,13.76,0h0c3.8,3.81,3.8,9.97,0,13.77"/>
          <path class="cls-54" d="M335.36,99.5l-80.94,80.94c-3.8,3.8-9.96,3.8-13.76,0h0c-3.8-3.81-3.8-9.97,0-13.77l80.94-80.94c3.8-3.8,9.96-3.8,13.76,0h0c3.8,3.81,3.8,9.97,0,13.77"/>
          <path class="cls-80" d="M25.75,36.5c0,5.34-4.33,9.67-9.67,9.67s-9.67-4.33-9.67-9.67,4.33-9.67,9.67-9.67,9.67,4.33,9.67,9.67"/>
          <path class="cls-40" d="M384.42,17.83c0,5.34-4.33,9.67-9.67,9.67s-9.67-4.33-9.67-9.67,4.33-9.67,9.67-9.67,9.67,4.33,9.67,9.67"/>
          <path class="cls-35" d="M365.75,103.17c0,5.34-4.33,9.67-9.67,9.67s-9.67-4.33-9.67-9.67,4.33-9.67,9.67-9.67,9.67,4.33,9.67,9.67"/>
          <path class="cls-40" d="M97.75,9.67c0,5.34-4.33,9.67-9.67,9.67s-9.67-4.33-9.67-9.67S82.74,0,88.08,0s9.67,4.33,9.67,9.67"/>
          <g class="cls-59">
            <g class="cls-31">
              <path class="cls-6" d="M384.78-30.78l-59.92,59.92c-2.81,2.81-7.38,2.81-10.19,0-2.82-2.82-2.82-7.38,0-10.19l59.92-59.92c2.82-2.82,7.38-2.82,10.19,0,2.81,2.81,2.81,7.38,0,10.19"/>
            </g>
          </g>
          <path class="cls-8" d="M444.21,32.1l-59.92,59.92c-2.81,2.81-7.38,2.81-10.19,0s-2.82-7.38,0-10.19l59.92-59.92c2.81-2.82,7.38-2.82,10.19,0,2.81,2.81,2.81,7.38,0,10.19"/>
          <path class="cls-8" d="M73.53,104.85L13.61,164.77c-2.81,2.81-7.38,2.81-10.19,0-2.82-2.82-2.82-7.38,0-10.19l59.92-59.92c2.81-2.82,7.38-2.82,10.19,0,2.81,2.81,2.81,7.38,0,10.19"/>
          <g class="cls-59">
            <g class="cls-15">
              <path class="cls-6" d="M76.6,107.92l-59.92,59.92c-2.82,2.81-7.38,2.81-10.19,0-2.82-2.82-2.82-7.38,0-10.19l59.92-59.92c2.81-2.82,7.38-2.82,10.19,0s2.81,7.38,0,10.19"/>
            </g>
          </g>
          <g class="cls-59">
            <g class="cls-57">
              <path class="cls-6" d="M447.28,35.17l-59.92,59.92c-2.81,2.81-7.38,2.81-10.19,0s-2.82-7.38,0-10.19l59.92-59.92c2.82-2.82,7.38-2.82,10.19,0,2.81,2.81,2.81,7.38,0,10.19"/>
            </g>
          </g>
          <path class="cls-54" d="M95.03-46.9L35.11,13.02c-2.81,2.81-7.38,2.81-10.19,0-2.82-2.82-2.82-7.38,0-10.19l59.92-59.92c2.81-2.82,7.38-2.82,10.19,0,2.81,2.81,2.81,7.38,0,10.19"/>
          <g class="cls-59">
            <g class="cls-32">
              <path class="cls-6" d="M98.1-43.83L38.18,16.09c-2.82,2.81-7.38,2.81-10.19,0-2.82-2.82-2.82-7.38,0-10.19l59.92-59.92c2.81-2.81,7.38-2.81,10.19,0s2.81,7.38,0,10.19"/>
            </g>
          </g>
          <g class="cls-59">
            <g class="cls-74">
              <path class="cls-6" d="M151.71,75.78l-80.94,80.94c-3.8,3.8-9.96,3.8-13.76,0h0c-3.8-3.81-3.8-9.97,0-13.77L137.95,62.01c3.8-3.8,9.96-3.8,13.76,0h0c3.8,3.81,3.8,9.97,0,13.77"/>
            </g>
          </g>
          <g class="cls-59">
            <g class="cls-23">
              <path class="cls-6" d="M301.12-61.34L220.18,19.6c-3.8,3.8-9.96,3.8-13.76,0h0c-3.8-3.81-3.8-9.97,0-13.77l80.94-80.94c3.8-3.8,9.96-3.8,13.76,0h0c3.8,3.81,3.8,9.97,0,13.77"/>
            </g>
          </g>
          <g class="cls-59">
            <g class="cls-28">
              <path class="cls-6" d="M27.62,87.56L-53.33,168.5c-3.8,3.8-9.96,3.8-13.76,0h0c-3.8-3.81-3.8-9.97,0-13.77L13.85,73.79c3.8-3.8,9.96-3.8,13.76,0h0c3.8,3.81,3.8,9.97,0,13.77"/>
            </g>
          </g>
          <g class="cls-59">
            <g class="cls-62">
              <path class="cls-6" d="M168.46,119.14l-80.94,80.94c-3.8,3.8-9.96,3.8-13.76,0h0c-3.8-3.81-3.8-9.97,0-13.77l80.94-80.94c3.8-3.8,9.96-3.8,13.76,0h0c3.8,3.81,3.8,9.97,0,13.77"/>
            </g>
          </g>
          <g class="cls-59">
            <g class="cls-49">
              <path class="cls-6" d="M283.46,119.14l-80.94,80.94c-3.8,3.8-9.96,3.8-13.76,0h0c-3.8-3.81-3.8-9.97,0-13.77l80.94-80.94c3.8-3.8,9.96-3.8,13.76,0h0c3.8,3.81,3.8,9.97,0,13.77"/>
            </g>
          </g>
          <g class="cls-59">
            <g class="cls-77">
              <path class="cls-6" d="M335.79-34.8L254.85,46.14c-3.8,3.8-9.96,3.8-13.76,0h0c-3.8-3.81-3.8-9.97,0-13.77l80.93-80.94c3.8-3.8,9.96-3.8,13.76,0h0c3.8,3.81,3.8,9.97,0,13.77"/>
            </g>
          </g>
          <g class="cls-59">
            <g class="cls-4">
              <path class="cls-6" d="M339.5,103.64l-80.94,80.94c-3.8,3.8-9.96,3.8-13.76,0h0c-3.8-3.81-3.8-9.97,0-13.77l80.94-80.94c3.8-3.8,9.96-3.8,13.76,0h0c3.8,3.81,3.8,9.97,0,13.77"/>
            </g>
          </g>
          <g class="cls-59">
            <g class="cls-37">
              <path class="cls-6" d="M29.9,40.65c0,5.34-4.33,9.67-9.67,9.67s-9.67-4.33-9.67-9.67,4.33-9.67,9.67-9.67,9.67,4.33,9.67,9.67"/>
            </g>
          </g>
          <g class="cls-59">
            <g class="cls-16">
              <path class="cls-6" d="M388.56,21.98c0,5.34-4.33,9.67-9.67,9.67s-9.67-4.33-9.67-9.67,4.33-9.67,9.67-9.67,9.67,4.33,9.67,9.67"/>
            </g>
          </g>
          <g class="cls-59">
            <g class="cls-71">
              <path class="cls-6" d="M369.9,107.31c0,5.34-4.33,9.67-9.67,9.67s-9.67-4.33-9.67-9.67,4.33-9.67,9.67-9.67,9.67,4.33,9.67,9.67"/>
            </g>
          </g>
          <g class="cls-59">
            <g class="cls-22">
              <path class="cls-6" d="M101.9,13.81c0,5.34-4.33,9.67-9.67,9.67s-9.67-4.33-9.67-9.67,4.33-9.67,9.67-9.67,9.67,4.33,9.67,9.67"/>
            </g>
          </g>
        </g>
      </g>
      <g class="cls-68">
        <g class="cls-5">
          <path class="cls-12" d="M0,121.72H0c0,2.7,2.26,4.84,4.95,4.71l191.05-9.43H4.72c-2.6,0-4.72,2.11-4.72,4.72Z"/>
        </g>
      </g>
      <g class="cls-68">
        <g class="cls-73">
          <path class="cls-12" d="M392.5,121.72h0c0,2.7-2.26,4.84-4.95,4.71l-191.05-9.43h191.28c2.6,0,4.72,2.11,4.72,4.72h0Z"/>
        </g>
      </g>
      <g>
        <path class="cls-6" d="M271.65,38.71h7.83v-1.41h-9.63v-2.65h22.36v2.65h-9.49v1.41h7.83v11.67h-3.14v-1.31h-4.73c-.11,1.26-.4,2.32-.88,3.18,2.79,.65,6.39,1.01,10.82,1.09l-1.8,3.21c-5.08-.23-8.94-.86-11.59-1.91-1.67,.89-4.21,1.64-7.61,2.26-.53-.83-1.27-1.86-2.23-3.09,2.84-.27,5-.62,6.48-1.05-1.12-.77-2.1-1.6-2.94-2.48l1.72-1.2h-2.99v-10.36h0Zm3.14,4.02h4.69v-1.52h-4.69v1.52Zm0,3.82h4.69v-1.52h-4.69v1.52Zm4.61,2.51h-4.05c.9,.84,1.98,1.54,3.23,2.11,.42-.54,.7-1.24,.82-2.11h0Zm8-7.85h-4.69v1.52h4.69v-1.52Zm0,5.34v-1.52h-4.69v1.52h4.69Z"/>
        <path class="cls-6" d="M316.72,53.13c-.44,1.12-.77,2.16-1.01,3.12-1.04,.03-3.38,.05-7.01,.05h-4.15c-1.6,0-3-.19-4.2-.56s-2.17-.94-2.93-1.69l-2.72,2.79-1.34-3.59c.83-.8,1.63-1.53,2.41-2.19v-6.06h-2.25v-2.98h5.32v9.34c1.23,1.29,3.05,1.93,5.48,1.93,6.76,0,10.88-.05,12.38-.16h.02Zm-19.99-19.17c1.17,1.53,2.23,2.97,3.16,4.31l-2.74,1.85c-.95-1.62-1.93-3.16-2.93-4.62l2.51-1.55h0Zm3.07,10.28h3.35c.05-.53,.07-1.88,.07-4.03h-2.53v-2.81h2.53v-3.56h3.14v3.56h3.52v-3.56h3.14v3.56h2.51v2.81h-2.51v4.03h3.42v2.81h-3.42v5.53h-3.14v-5.53h-3.87c-.38,2.3-1.09,4.29-2.11,5.95-.95-.83-1.97-1.61-3.05-2.34,.81-.99,1.42-2.2,1.82-3.61h-2.87v-2.81h0Zm6.52,0h3.56v-4.03h-3.52c0,1.58-.02,2.92-.05,4.03h0Z"/>
        <path class="cls-6" d="M317.72,43.47h22.64v3.47h-22.64v-3.47h0Z"/>
        <path class="cls-6" d="M360.9,46.28l2.39,2.34c-4.77,4.45-11.47,7.2-20.11,8.25-.53-1.16-1.09-2.25-1.66-3.28,3.92-.31,7.39-.98,10.41-2v-6.76h3.28v5.43c2.21-1.08,4.11-2.4,5.7-3.97h-.01Zm-19.29-4.89h3.35v-6h3.28v6h3.87v-7.73h3.33v2.44h7.2v2.84h-7.2v2.46h9.09v2.88h-22.92v-2.88h0Zm5.88,3.74l2.3,2.02c-1.91,1.81-3.93,3.46-6.07,4.95-.5-.7-1.16-1.52-1.97-2.46,2.09-1.31,4.01-2.81,5.74-4.5h0Z"/>
      </g>
      <g>
        <path class="cls-6" d="M267.99,68.1c1.89-1.3,4.07-2.86,6.54-4.69h-16.03v-3.26h21.47v3.23l-8.27,6.16v7.57c0,1.48-.38,2.59-1.14,3.32s-1.89,1.1-3.39,1.11l-4.28,.02c-.22-1.16-.5-2.35-.84-3.59,1.49,.14,2.74,.21,3.74,.21,.92,0,1.52-.19,1.8-.57s.42-.87,.42-1.47v-8.06l-.02,.02Z"/>
        <path class="cls-6" d="M293.24,75.32h4.83v-2.58h-2.2c-.3,.77-.63,1.48-1.01,2.11-.83-.46-1.59-.84-2.27-1.14v5c0,.91-.16,1.61-.47,2.12s-.78,.8-1.39,.9-1.31,.15-2.08,.15l-.29-1.48h-1.79v-4.43h-1.39c-.23,2.65-.71,4.74-1.42,6.28-.77-.95-1.5-1.75-2.2-2.39,.88-2,1.31-4.92,1.31-8.77v-3.88c-.15,.15-.3,.29-.45,.43-.19-1.02-.46-2.1-.82-3.26,1.61-1.64,2.85-3.51,3.73-5.6l2.86,.38c-.2,.47-.4,.93-.62,1.38h4.25v2.2l-1.2,2.13h1.97v8.23c.93-1.52,1.52-3.09,1.78-4.73l2.55,.35c-.09,.49-.18,.97-.29,1.43h1.44v-1.97h2.95v1.97h3.26v2.58h-3.26v2.58h3.82v2.58h-3.82v4.08h-2.95v-4.08h-4.83v-2.58h0Zm-8.34-10.42h2.75l1.14-2.04h-2.48c-.43,.7-.9,1.38-1.41,2.04Zm.41,8.88h1.25v-2.2h-1.22c0,.11-.01,.84-.04,2.2h.01Zm.04-4.41h1.22v-2.23h-1.22v2.23Zm4.8-2.23h-1.34v2.23h1.34v-2.23Zm-1.34,6.63h1.34v-2.2h-1.34v2.2Zm1.34,2.2h-1.34v3.22c.56,.02,.93-.05,1.09-.22s.25-.51,.25-1.01v-1.99Zm8.32-8.25c-.15-.97-.36-1.87-.62-2.7-.52,1.23-1.57,2.34-3.13,3.3-.61-.84-1.31-1.68-2.11-2.51,1.77-.89,2.71-2.05,2.84-3.49h-2.18v-2.55h10.97c-.04,3.31-.22,5.32-.54,6.02s-.77,1.2-1.35,1.49-1.87,.44-3.87,.44h-.01Zm-.57-2.8c.78,.04,1.36,.06,1.75,.06,.57,0,.95-.14,1.14-.42s.29-1.02,.29-2.23h-2.6c-.09,.99-.29,1.86-.57,2.59h-.01Z"/>
        <path class="cls-6" d="M314.99,58.86l3.87,.54-.93,2.34h8.92v20.25h-3.38v-1.41h-12.3v1.43h-3.38v-20.27h6.5c.3-1.11,.54-2.07,.69-2.88h0Zm8.48,5.95h-12.3v2.27h12.3v-2.27Zm-12.3,7.48h12.3v-2.27h-12.3v2.27Zm0,5.23h12.3v-2.3h-12.3v2.3Z"/>
        <path class="cls-6" d="M346.93,71.85v-.94h-11.62v5.04c0,1.48,.71,2.23,2.13,2.23h9.26c.62,0,1.12-.12,1.48-.38s.6-.63,.7-1.15,.28-1.77,.54-3.74c1.38,.59,2.57,1.05,3.59,1.36-.45,2.27-.79,3.82-1.04,4.63s-.8,1.43-1.66,1.86-2.03,.64-3.49,.64h-10.03c-3.3,0-4.95-1.66-4.95-4.99v-8.7h15.09v-4.48h-15.73v-3.21h19.22v11.84h-3.49Z"/>
      </g>
      <g class="cls-69">
        <g>
          <g>
            <g class="cls-59">
              <path class="cls-14" d="M27.32,97.2l18.69-1.53,22.48,3.31-25.29,2.11-15.89-3.9h0Z"/>
            </g>
            <path class="cls-84" d="M41.95,88.44l-1.5,4.98-1.82,1.69-.84-1.14-.31-7.3,.74-4.51,3.73,6.28Z"/>
            <path class="cls-61" d="M38.53,85.46l3.87,1.42-.45,1.56-4.47-1.76s1.05-1.22,1.05-1.22Z"/>
            <path class="cls-84" d="M50.66,79.45v7.75l-.42,5.26-1.79,2.4-1.11-1.95-1.07-4.34,4.39-9.11h0Z"/>
            <path class="cls-61" d="M47.72,84.81l2.96,2.39-4.4,1.37-.39-1.56,1.84-2.2h0Z"/>
            <path class="cls-64" d="M48.04,98.52l-.83-.04-.45-3.34,.59-2.24,1.93,1.38-.46,1.31-.78,2.92h0Z"/>
            <path class="cls-64" d="M37.79,93.98l-1.38,2.8,.88,2.5,.49-5.31h0Z"/>
            <path class="cls-3" d="M40.46,93.43l.93,1.97-1.34,1.58-2.63,.43,.38-3.42s2.66-.56,2.66-.56Z"/>
            <path class="cls-52" d="M37.41,97.41l3.97-2.01,.45,.87-.87,1.24-3.64,.78,.08-.89h0Z"/>
            <path class="cls-52" d="M37.33,98.29l4.51-2.02,1.32,2.19-2.19,.35-3.63-.51h-.01Z"/>
            <path class="cls-3" d="M50.24,92.41l2.18,2.5-1.2,1.23-1.79,.58-2.09-3.82s2.9-.49,2.9-.49Z"/>
            <path class="cls-52" d="M49.43,96.73l3-1.81,.67,.7-1.09,1.15-2.13,.59-.45-.62h0Z"/>
            <path class="cls-52" d="M49.87,97.54l3.23-1.93,2.07,2.09-2.81,.34-2.48-.49h0Z"/>
            <path class="cls-64" d="M37.3,99.29l5.83,.17,.03-1-5.83-.17s-.03,1-.03,1Z"/>
            <path class="cls-64" d="M48.82,95.6l-.45,.4,.17,.43,2.01,2.21,4.59,.13,.03-1.07-3.81-.11-2.53-1.99h0Z"/>
          </g>
          <path class="cls-39" d="M33.12,83.76l10.37-2.04,11.15,2.94-2.5-9.78-5.69-6.94-9.62,8.38-.8,.71-2.91,6.72h0Z"/>
          <g>
            <path class="cls-61" d="M74.91,61.35l-1.84,1.26-1.34-.79,.05-1.81s3.13,1.34,3.13,1.34Z"/>
            <path class="cls-84" d="M69.57,57.81l5.3-.43,.04,3.98-5.56-1.02s.22-2.53,.22-2.53Z"/>
            <path class="cls-44" d="M69.95,61.47l16.93-10.79,.73,1.13-17.02,10.73-.63-1.06h-.01Z"/>
            <path class="cls-10" d="M69.42,61.68l.53-.21,.63,1.06-.34,.42-.82-1.27Z"/>
            <path class="cls-10" d="M86.88,50.68l.53-.78,1.11,1.65-.91,.26s-.73-1.13-.73-1.13Z"/>
            <path class="cls-3" d="M69.04,58.33l4.79,1.13-.54,1.14-4.53,.04,.27-2.32h.01Z"/>
          </g>
          <g>
            <g>
              <path class="cls-52" d="M69.86,56.93l-4.48,.38-1.64,1.81,.44,2.15,4.96,1.19,.71-5.53h.01Z"/>
              <path class="cls-64" d="M58.7,56.9l6.69,.41-1.2,3.96-5.83,1.34,.33-5.71h0Z"/>
            </g>
            <path class="cls-64" d="M49.98,58.04l2-.43,.9-1.07,5.82,.37,3.11,3.09-3.44,2.62-7.61,1.67-.78-6.23v-.02Z"/>
          </g>
          <g>
            <path class="cls-48" d="M18.62,46.87l5.79,8.34,1.69,.11,1.68-5.04-.83-2.02-8.33-1.38h0Z"/>
            <path class="cls-10" d="M50.79,41.93l-19.68,15.53-6.71-2.25,8.21-22.49,18.17,9.22h.01Z"/>
            <path class="cls-48" d="M50.79,41.93l-2.39,7.21-17.28,8.32,9.42-20.72,10.26,5.2h-.01Z"/>
            <path class="cls-48" d="M53.59,27.63l4.79,6.79-4.39,10.1-3.54-17.37s3.14,.48,3.14,.48Z"/>
            <path class="cls-48" d="M53.8,26.72l4.58,7.7-7.93-7.27s3.35-.43,3.35-.43Z"/>
            <path class="cls-84" d="M41.38,56.64l-8.2-20.81,5.13-3.43,5.04,6.37,5.24,13.26-2.17,8.86-5.03-4.26h-.01Z"/>
            <path class="cls-3" d="M52.71,29.21l2.35,22.35-12.29,1.83-4.69-20.92,14.63-3.25h0Z"/>
            <path class="cls-61" d="M48.5,52.49l-2.09,8.45-4.98-7.45,7.07-.99h0Z"/>
            <path class="cls-48" d="M36.76,34.8l3.22,6.14-.98,.82,.44,8.15,.57,3.27-9.24-15.39,6-2.98h0Z"/>
            <path class="cls-3" d="M39,41.75l-2.92,.77,1.43,3.91,2.59-.98-1.1-3.71h0Z"/>
            <path class="cls-61" d="M38.44,42.79l-1.42,.37,1.66,1.09-.24-1.46Z"/>
            <path class="cls-64" d="M39.1,44.91l.65,2.2-1.16,.32-.5-2.23,1.01-.3h0Z"/>
          </g>
          <g>
            <path class="cls-64" d="M36.35,60.27l-3.07,1.39-1.38,7.3,4.28,2.8,1.81-.75,.5-2.11,.42-4.2-3-6.95,.43,2.52h0Z"/>
            <path class="cls-64" d="M33.81,58.77l-.54,2.89,4.45,2.37,1.01-.94-.81-7.21-3.74,.79-.38,2.1h.01Z"/>
            <path class="cls-64" d="M31.9,68.96l4.28,2.8,1.81-.75,.5-2.11s-6.59,.06-6.59,.06Z"/>
          </g>
          <g>
            <path class="cls-52" d="M42.41,86.88l-5.47-10.62,1.36-3.07,8.28-6.59,5.14,6.82-1.03,13.79-8.27-.32h0Z"/>
            <path class="cls-64" d="M37.48,86.68l-.54-10.42,1.36-3.07,8.28-6.59,1.55,5.66-5.72,14.62-4.92-.2h0Z"/>
          </g>
          <g>
            <path class="cls-52" d="M36.36,57.83l1.58-1.95,.75-.26,3.78,2.31,4.05,2.09,1.31,2.53-1.4,6.48-2.93,3.27-6.52,4.5,1.51-7.9-2.13-11.06h0Z"/>
            <path class="cls-30" d="M51.75,69.57l1.43,6.41-5.06-3.72,1.6,3.06-3.3-6.29,.09-9.01,3.48-2.42-.74-1.64,3.02,.85,.51,.9-1.03,11.87h0Z"/>
            <path class="cls-66" d="M45.5,63.74l1.01-.94,.79,1.02-.83,.98s-.97-1.06-.97-1.06Z"/>
            <path class="cls-66" d="M45.47,67.35l1-.9,.82,1.01-.83,.92-.98-1.03h0Z"/>
            <g>
              <path class="cls-30" d="M43.5,72.29l-10.39,11.47-.06-8.13,5.44-6.74s5.01,3.4,5.01,3.4Z"/>
              <path class="cls-66" d="M51.75,69.57l3.91,8.85-1.03,6.25-4.91-9.35-1.6-3.06,3.63-2.68h0Z"/>
            </g>
            <path class="cls-66" d="M48.13,72.26l-4.62,.04,2.93-3.27s1.69,3.23,1.69,3.23Z"/>
          </g>
          <g>
            <g>
              <path class="cls-6" d="M47.62,49.3l-1.92-.76,2.07-.56,1.51,.35,1.67-.18,.59,.1-2.77,1.16-1.15-.12h0Z"/>
              <path class="cls-64" d="M51.54,48.26l-2.72-.98-3.12,1.26,3.06-.15s2.78-.13,2.78-.13Z"/>
              <path class="cls-30" d="M48.59,50.06l2.95-1.8-2.74,.65-3.1-.37,2.88,1.52h0Z"/>
            </g>
            <path class="cls-9" d="M49,38.69l1.23,6.03-2.16,.26-.71-6.13s1.64-.16,1.64-.16Z"/>
            <path class="cls-61" d="M49,46l1.23-1.28-2.16,.26,.93,1.01h0Z"/>
            <path class="cls-84" d="M43.25,39.28l4.11-.43,.71,6.13-4.82-5.7Z"/>
            <path class="cls-84" d="M49.96,43.37l2.23-5.36-3.19,.68,.96,4.67h0Z"/>
            <g>
              <path class="cls-48" d="M42.75,37.95l3.53,1.02-4.72,.42,1.18-1.44h.01Z"/>
              <path class="cls-48" d="M53.11,37.75l-4.11,.94,3.32-2.37,.79,1.43Z"/>
            </g>
          </g>
          <g>
            <path class="cls-30" d="M38.69,55.62l-4.49,1.04-.38,2.1h0l5.81-1.73-.93-1.41h0Z"/>
            <g>
              <path class="cls-64" d="M48.2,53.53l1.06,2.42,.66,1.02,.08,.62-1.5,2.11-1.98,.31,1.68-6.49h0Z"/>
              <path class="cls-64" d="M38.69,55.62l1.27-2.54,6.56,6.94-5.05-.16s-2.78-4.24-2.78-4.24Z"/>
            </g>
            <path class="cls-66" d="M49.26,55.95l3.62,.58-.09,1.17-2.78-.11-.25-.57-.49-1.07h0Z"/>
          </g>
          <g>
            <path class="cls-14" d="M51.55,38.95c-.5,0-.91,.38-.93,.88s.38,.91,.88,.93,.91-.38,.93-.88-.38-.91-.88-.93Z"/>
            <path class="cls-14" d="M44.72,39.93c-.5,0-.91,.38-.93,.88s.38,.91,.88,.93,.91-.38,.93-.88-.38-.91-.88-.93Z"/>
          </g>
          <g>
            <path class="cls-10" d="M52.04,23.09l-19.42,9.62-4.04,4.33,11.39,3.89,15.57-11.91-3.5-5.93Z"/>
            <path class="cls-48" d="M52.04,23.09l-20.39,8.76-3.07,5.19,23.46-13.95Z"/>
            <path class="cls-79" d="M52.04,23.09l-12.06,17.85,18.72-11.77s-6.66-6.08-6.66-6.08Z"/>
          </g>
        </g>
      </g>
      <g class="cls-56">
        <g>
          <g>
            <path class="cls-38" d="M121.86,43.09l-5.36,.64,.16,2.67,.31,3.25,2.81-1.67,2.09-4.88h0Z"/>
            <path class="cls-82" d="M116.12,40.22l1.17,4.08,4.56-1.21-5.74-2.87h.01Z"/>
            <path class="cls-38" d="M113.66,54.8l3.87-.66,2.09,1.36,2.95-4.86-3.1,.79-5.82,3.36h.01Z"/>
            <path class="cls-81" d="M119.77,47.98l-3.56-.26-1.69,6.71,8.06-3.77-2.81-2.67h0Z"/>
            <path class="cls-81" d="M97.57,49.84l-4.45,.88-1.52,3.24,6.12,.63,.03-2.55-.18-2.19h0Z"/>
            <path class="cls-38" d="M97.22,46.76l-6.18,1.15,2.08,2.81,6.07,1.65-.66-2.46-1.31-3.16h0Z"/>
            <path class="cls-82" d="M97.56,42.39l-1.22,.17-.83-1.24-4.47,6.58,6.26-.41,.25-5.11h.01Z"/>
            <path class="cls-38" d="M100.24,52.93l-8.64,1.03,2.92,2.39,6.21-1.57-.49-1.85Z"/>
          </g>
          <g>
            <path class="cls-61" d="M127.99,59.77l2.13-.41,2.42-1.34,2.69-4.75-4.5,1.2-2.77,2.8,.03,2.51h0Z"/>
            <path class="cls-58" d="M145.2,47.54l-.62,.06-3.95,2.28-1.47,.66-1.16,2.42-2.56,.16-.26,1.07-2.68,1.96-1.46,.06-2.83,1.98,1.92,1.17,5.68-4.76,2.92-.49,1.63-2.92,4.85-3.64h-.01Z"/>
            <path class="cls-17" d="M132.41,56.84l2.77-2.65,.26-1.07-4.4,3.09,1.37,.63Z"/>
            <path class="cls-17" d="M144.58,47.6l.62-.06-.76-.37-5.29,3.38h1.35l4.07-2.94h0Z"/>
            <path class="cls-3" d="M127.77,55.33l3.12-2.61,4.29-.18,.26,.59-1.41,.97-1.95,.37-1.04,1.75-1.25,.87-1.82,.17s-.2-1.93-.2-1.93Z"/>
            <path class="cls-84" d="M137.21,54.36l-3.35,5.14-3.74-.14,5.31-6.24,1.77,1.24h.01Z"/>
          </g>
          <g>
            <path class="cls-67" d="M127.58,63.19l-1.31-7.53-3.85,.7-5.63,6.62s10.79,.21,10.79,.21Z"/>
            <path class="cls-36" d="M116.41,53.44l-1.64,3.9,3.32,5,4.38-5.97-6.06-2.92h0Z"/>
            <path class="cls-63" d="M114.22,63.06l5.98,2.87,4.64-1.54,2.72-1.29-9.48-.76-2.26-4.56-3.67-7.16,2.06,12.44h.01Z"/>
            <path class="cls-58" d="M127.78,55.3l-1.65,.42,.87,7.5-6.8,2.72,1.38,.56,7.13-2.44-.93-8.75h0Z"/>
          </g>
          <g>
            <path class="cls-67" d="M115.66,62.67l3.38-.54-1.45-5.74-1.93,6.27h0Z"/>
            <path class="cls-67" d="M100.42,57.43l-1.9-.22-5.01-.36,6.84,5.17,.52,1.57,3.24,6.09,3.97-4.12-7.66-8.12h0Z"/>
            <path class="cls-76" d="M98.09,64.61l2.33,3.8,2.34,.96,1.59-2.42-3.56-5.76-2.7,3.43h0Z"/>
            <path class="cls-17" d="M106.56,56.94c2.92,2.87,5.85,5.73,8.77,8.6-.06-4.35-.11-8.7-.17-13.06-.15-.09-5.97-.32-5.97-.32-.45,.42-.99,1.01-1.49,1.81-.71,1.15-1.01,2.24-1.15,2.96h0Z"/>
            <path class="cls-17" d="M106.23,54.02l-.53,2.6-5.65,2.73,8.9,5.76,.06,.07,5.67-2.15-8.44-9.02h0Z"/>
            <path class="cls-65" d="M98.49,58.95l1.56,.41,6.69-2.76-9.79-3.79-2.68,3.13,4.22,3.01Z"/>
            <path class="cls-58" d="M111.79,49.9v-.02l-.05,.03h.05Z"/>
            <path class="cls-58" d="M108.36,64.26l-14.08-8.32-.77,.9,14.57,8.7,5.48,6.65,2.57-9.19s-7.77,1.26-7.77,1.26Z"/>
            <path class="cls-58" d="M106.8,54.12l-3.81-2.16-5.63-1.24-.41,2.08,9.79,3.79,.06-2.48h0Z"/>
            <path class="cls-58" d="M106.75,56.42c.94-1.38,1.88-2.76,2.83-4.14-.41-.96-.82-1.92-1.23-2.88-.56,.95-1.12,1.9-1.68,2.84,.03,1.39,.06,2.79,.09,4.18h0Z"/>
          </g>
          <g>
            <g class="cls-59">
              <path class="cls-14" d="M85.58,98.33l18.86,2.05,29.27-2.33-27.76-2.03-20.37,2.31Z"/>
            </g>
            <path class="cls-58" d="M109.89,91.93l-.05,3.65,3.22-.99,1.83-1.39,.65-2.66-5.64,1.38h-.01Z"/>
            <path class="cls-58" d="M96.02,90.63l-.97,4.96h2.78l2.64-1.68,.59-1.25-5.05-2.03h.01Z"/>
            <path class="cls-17" d="M114.89,93.2l-5.04,2.38v1.35l4.28,.36,5.25-.36-4.49-3.74h0Z"/>
            <path class="cls-58" d="M109.84,96.94h9.53v1.29h-9.53v-1.29Z"/>
            <path class="cls-17" d="M100.48,93.91l1.17,3.74-3.3,.64-3.77-.64,.47-2.05,5.43-1.68h0Z"/>
            <path class="cls-58" d="M94.59,97.65h7.07v1.29h-7.07v-1.29Z"/>
          </g>
          <g>
            <path class="cls-67" d="M118.97,62.04l-1.61,.22-8.22,14.22-4.91-9.87-3.99,1.28-7.8,20.88,10.1,6.29,.04,.03,16.97-6.44s-.58-26.61-.58-26.61Z"/>
            <path class="cls-36" d="M115.6,63.18l-3.4,5.78-1.68-1.54-2.49-2.05-3.79,1.24-1.49,27.04,15.45-31.62-2.46,.81-.13,.34h-.01Z"/>
            <path class="cls-58" d="M102.74,93.64l-10.29-4.87-.48,1.44,10.58,4.85,.04,.03,16.99-4.87-.02-1.57-16.81,4.99h-.01Z"/>
            <path class="cls-25" d="M119.01,61.89l-4.2,.03s-.37,5.51-.44,5.58,4.7-.42,4.7-.42c0,0-.06-5.19-.06-5.19Z"/>
          </g>
          <g>
            <path class="cls-84" d="M95.4,74.15l-.78,2.89-.33,1.21,1.37,.42,.77-4.33s-1.03-.19-1.03-.19Z"/>
            <path class="cls-3" d="M92.04,71.72l-1.85,1.95,.05,2.44,2.49,2.17,1.56-.02h0l.9-2.7-3.15-3.83h0Z"/>
            <path class="cls-61" d="M95.43,74.01l-5.28-2.36,.04,2.02,5,1.88,.21-1.4,.04-.14h-.01Z"/>
            <path class="cls-84" d="M94.29,78.25l-4.05-2.15,.63,3.69,2.62,1.48,.8-3.03h0Z"/>
          </g>
          <g>
            <path class="cls-36" d="M93.47,56.8l-4.4,12.03,9.3-1.34,.82-7.74-5.71-2.95h-.01Z"/>
            <path class="cls-67" d="M89.06,68.83h0l5.68,6.03,1.79-1.3,2.75-13.9-10.23,9.17h0Z"/>
            <path class="cls-63" d="M99.22,59.79l-4.7,14.32,3.14-1.21,1.5-1.67,2.09-9.78s-2.03-1.66-2.03-1.66Z"/>
            <path class="cls-58" d="M94.43,75.87l4.28-3.03,.45-1.62-4.64,2.88-5.46-5.28-.54,1.45,5.91,5.59h0Z"/>
          </g>
          <g>
            <path class="cls-3" d="M117.87,50.18l-1.82-18.69-4.96-4.43-3.54,2.58-6.89-.96-1.28,1.01,2.15,5.07,3.01,18.05,6.46-1.29,6.87-1.35h0Z"/>
            <path class="cls-51" d="M111.02,28.12l5.04,3.38-2.83-4.41-2.52-.94-.61,.85,.92,1.13h0Z"/>
            <path class="cls-82" d="M105.35,28.17l2.67,2.75,2.99-2.79-.32-1.97-5.18-1.94-.16,3.96h0Z"/>
            <path class="cls-81" d="M100.18,27.79v.62l.41,.38,7.42,2.13h.01l-2.51-6.72-5.33,3.58h0Z"/>
            <path class="cls-84" d="M102.32,32.04l-1.65-3.35-3.49,5.06,1.43,1.92v4.77l-1.3-1.68-1.14,1.48-1.76,.51,1.11,4.22,1.48-.26,.93,.26-.62,2.55,.17,3.44,6.1,2.09,1.19,.26-2.44-21.24v-.03Z"/>
            <path class="cls-61" d="M96.99,44.7l.31,2.81,1.61-3.18-1.92,.37Z"/>
            <path class="cls-61" d="M95.51,41.33l2.31,1.8-.48-2.25s-1.83,.45-1.83,.45Z"/>
            <path class="cls-61" d="M107.73,52.18l-4.31,.8,3.17,1.15,1.13-1.95h.01Z"/>
            <path class="cls-38" d="M94.19,31.88l1.98,8.35,.84-.23,1.68,1.14,.97-6.4-1.93-1.33,2.93-4.72-.48-.9-6,4.08h.01Z"/>
          </g>
          <g class="cls-43">
            <path class="cls-58" d="M108.36,64.26l-14.08-8.32-.77,.9,14.57,8.7,5.48,6.65,2.57-9.19s-7.77,1.26-7.77,1.26Z"/>
          </g>
          <g>
            <path class="cls-81" d="M110.63,43.82l-4.94,3.83,1.64,16.73,4.85,5.17,.35,.73-.23,.69-.63,1.84,2.7,2.19-.43-20.34-1.96-10.45-1.35-.4h0Z"/>
            <path class="cls-51" d="M115.34,69.3l2.9-6.23-1.58-16.68-3.83-2.89-.84,.71,2.39,30.78,1.78-2.92-.71-1.36-.39-.67,.28-.75h0Z"/>
            <path class="cls-76" d="M115.45,70.72l-3.15,.25-.11-1.42,3.15-.25,.11,1.42Z"/>
          </g>
          <path class="cls-61" d="M113.91,46.77l-4.37,.42-.13-.89,4.37-.42,.13,.89Z"/>
          <g>
            <path class="cls-84" d="M104.32,36.36l6.31,7.46,.08-5.96-2.33-2.61,2.15-.22,.87,3.13,.89,1.76,1.79-4.95-2.72-.02-.83,.08-2.15,.22-.83,.2-3.23,.9h0Z"/>
            <path class="cls-38" d="M107.4,34.73l.2,.78-3.29,1.08-.29-.92s3.38-.94,3.38-.94Z"/>
            <path class="cls-38" d="M111.08,34.07l.24,.93,2.76,.12,.24-.6-3.24-.45Z"/>
            <path class="cls-9" d="M110.53,35.03l1.39,2.31,.9,6.16-2.2,.32-.74-6.07-1.51-2.5,2.15-.22h0Z"/>
            <path class="cls-38" d="M112.82,43.5l-2.2,.32,1.4,1,.79-1.31h0Z"/>
          </g>
          <g>
            <path class="cls-14" d="M106.91,38.04c.45,.03,.78,.42,.75,.86s-.42,.78-.86,.75-.78-.42-.75-.86,.42-.78,.86-.75Z"/>
            <path class="cls-14" d="M113.29,37.07c.45,.03,.78,.42,.75,.86s-.42,.78-.86,.75-.78-.42-.75-.86,.42-.78,.86-.75Z"/>
          </g>
        </g>
      </g>
      <g class="cls-2">
        <g>
          <g>
            <g class="cls-59">
              <path class="cls-19" d="M183.43,97.96l-21.22-1.53-20.2,1.22,19.2,1.93,22.21-1.61h.01Z"/>
            </g>
            <path class="cls-3" d="M167.9,95.71l.2,2.03h3.01l.99-.49,.85-.82-2.66-2.67-1.3-.04-1.1,1.99h.01Z"/>
            <path class="cls-84" d="M168.1,97.74l-.16-1.59,1.76,1.59,4.31-2.18,1.94,2.18h-7.85Z"/>
            <path class="cls-3" d="M156.96,93.72l1.33,1.69,.45,2.68h-2.38l-1.1-.96-1.17-1.41,.91-1.57,1.96-.42h0Z"/>
            <path class="cls-84" d="M154.21,95.59l-2.39,2.5h6.93l-.31-1.81-1.25,1.81-2.98-2.5Z"/>
            <path class="cls-61" d="M169.62,93.09l-1.06,.1-.87,.48,.2,2.03,2.39-1.95-.67-.67h0Z"/>
            <path class="cls-61" d="M157.96,93.4l-.85-.53-1.39,.03-.72,1.24,3.29,1.27-.34-2.01h.01Z"/>
            <path class="cls-27" d="M170.4,77.41l-4.45,1.8-4.37,2.47,2.74,7.34,4.23-.89,4.11-1.58-2.25-9.14h-.01Z"/>
            <g>
              <path class="cls-47" d="M164.32,89.02l.97,2.76,3.78-2.31,3.59-2.93-8.34,2.47h0Z"/>
              <path class="cls-60" d="M165.29,91.78l7.37-5.23,1.45,5.19-4.4,.43-4.42-.38h0Z"/>
              <path class="cls-47" d="M165.29,91.78l.97,2.33,7.85-2.38-8.82,.05h0Z"/>
            </g>
            <path class="cls-27" d="M161.58,81.68l-.61,7.1-4.38-.48-5.17-1.16,.75-9.33,5.54,1.9,3.86,1.97h.01Z"/>
            <g>
              <path class="cls-47" d="M151.43,87.13l4.86,2.81,4.45,1.84,.24-3.01-9.55-1.65h0Z"/>
              <path class="cls-60" d="M151.43,87.13l-.48,4.7,5.34,.25,4.45-.29-9.31-4.65h0Z"/>
              <path class="cls-47" d="M160.73,91.78l-9.79,.05,9.55,2.13,.24-2.18h0Z"/>
            </g>
          </g>
          <g>
            <path class="cls-48" d="M165.85,55.85l1.99,.66,1.1,1.05,1.44-.2,2.71,2.76-.78,2.53-1.98,2.94-17.26,.44-2.06-1.74-1.57-2.14,3.88-4.85,1.48-.19,.75-.76,2.22-.95,3.43,2.47,4.66-2.03h-.01Z"/>
            <g>
              <path class="cls-72" d="M170.4,77.41l-8.82,4.27-9.4-3.88,.9-11.75,1.46-1.66,1.47-.83,11.49-.63,1.36,.72,1.48,1.97,.07,11.8h-.01Z"/>
              <path class="cls-27" d="M170.38,57.37l-.05,8.24-2.84-2.69,.34-6.4,2.54,.85h.01Z"/>
              <path class="cls-27" d="M155.54,56.37l.47,7.18-2.93,2.5,.24-8.72,2.22-.95h0Z"/>
              <g>
                <path class="cls-18" d="M165.6,73.63h-7.75v-7.9h7.75v7.9Z"/>
                <path class="cls-18" d="M170.36,69.9l-.87-.63-.87,1.6,1.16-.19,.6,1.41v-2.18h-.02Z"/>
                <path class="cls-60" d="M165.27,74.6l-1.26,1.02,.19,1.02,1.65,1.21,.63-2.57s-1.21-.68-1.21-.68Z"/>
                <path class="cls-60" d="M157.85,72.81l2.04-.68-.19-1.65,.97-.39-.58-1.6-.53,.19,.05,.78-1.26-.1-.48,1.21-.18,.99,.18,1.24h-.02Z"/>
                <path class="cls-18" d="M161.82,75.13l-1.26-.34,.29,1.36,.92-.15,.05-.87Z"/>
                <path class="cls-7" d="M157.85,70.58l-1.65,.24,.78,1.99h.87s0-2.23,0-2.23Z"/>
              </g>
            </g>
          </g>
          <path class="cls-3" d="M176.88,63.35l-3.78-3.22-2.76,5.48,2.79,.95,2.55-.89,1.21-2.31h-.01Z"/>
          <path class="cls-3" d="M153.08,66.04l-4.65,3.83-1.29-4.99,2.3-2.72,3.64,3.88h0Z"/>
          <g>
            <path class="cls-47" d="M146.34,61.78l-9.4,1.41-3.01,8.05,4.27,6.74,8.58,3.01,8.51-1.9-.8-8.04-6.06-1.16-2.08-8.09v-.02Z"/>
            <path class="cls-84" d="M144.16,65.9l-1.03,1.01-1.49,.93,2.08,3.3,2.33-1.94-1.23-1.85s-.66-1.45-.66-1.45Z"/>
            <path class="cls-61" d="M145.31,69.81l-.77-2.31-2.91,.34,2.52-1.94,1.89,3.3-.73,.61Z"/>
            <path class="cls-3" d="M144.55,67.5l-2.91,.34-.82,3.11,.91,.5,2.83-3.95h0Z"/>
            <path class="cls-48" d="M139.97,66.1l-1.82-.67-.67,1.82,1.82,.67,.67-1.82Z"/>
            <path class="cls-11" d="M138.81,69.3l-1.82-.67-.67,1.82,1.82,.67,.67-1.82Z"/>
            <path class="cls-21" d="M139.97,72.88l-1.82-.67-.67,1.82,1.82,.67,.67-1.82Z"/>
            <path class="cls-42" d="M142.93,75.31l-1.82-.67-.67,1.82,1.82,.67,.67-1.82Z"/>
            <path class="cls-41" d="M146.23,76.52l-1.82-.67-.67,1.82,1.82,.67,.67-1.82Z"/>
            <path class="cls-34" d="M149.96,76.62l-1.82-.67-.67,1.82,1.82,.67,.67-1.82Z"/>
            <path class="cls-85" d="M153.25,74.73l-1.82-.67-.67,1.82,1.82,.67,.67-1.82Z"/>
            <path class="cls-61" d="M144.54,67.5l-.82,3.64-.84-1.33,1.66-2.31Z"/>
            <path class="cls-60" d="M142.88,69.81l-1.16,1.64,2-.32-.84-1.33h0Z"/>
          </g>
          <path class="cls-84" d="M173.12,66.55l6.75-5.82,2.24-.13-.38,2.64-3.79,4.87-4.82-1.56Z"/>
          <g>
            <path class="cls-61" d="M179.87,60.73l1.86,2.51,1.71-.6-1.36-3.51-2.21,1.6Z"/>
            <path class="cls-48" d="M173.9,52.34l8.85,9.57,.98-.77,.55-1.03-10.38-7.77Z"/>
            <path class="cls-27" d="M186.24,64.38l.27,1.44,2.42,.34-.53-1.26-1.08-.26-.65-.49-.43,.24h0Z"/>
            <path class="cls-72" d="M186.6,61.84l.71,2.79-2.6-.61,.85-1.27s1.04-.91,1.04-.91Z"/>
            <path class="cls-38" d="M181.62,60.68l3.1,3.35,1.89-2.18-2.32-1.73-2.67,.57h0Z"/>
            <path class="cls-3" d="M180.93,62.17l.68-1.49,2.14,.25,.53-.82-2.97-2.23-1.44,2.84,1.07,1.44h0Z"/>
            <path class="cls-84" d="M184.95,58.13l2.12,3.05-.47,.66-5.29-3.96,1.57,.11,2.07,.14h0Z"/>
          </g>
          <g>
            <path class="cls-60" d="M149.05,40.66l10.42-2.53,10.85-3.19-.15-1.56-.89-2.29-10.32,4.68-9.92,4.88h0Z"/>
            <path class="cls-47" d="M169.29,31.1l-11.02,2.73-11.13,3.56,.47,1.43,1.43,1.84,20.24-9.56h.01Z"/>
            <path class="cls-55" d="M157.05,31.52l-1.01,3.34,4.41-1.25-3.4-2.09h0Z"/>
            <path class="cls-55" d="M169.29,31.1l1.76,.59,1.92,1.4-2.24,3.54-.49-1.01,.09-.67-1.03-3.85h0Z"/>
            <path class="cls-60" d="M169.29,31.1l-.23-1.8,.43-2.34,2.25,3.35,1.23,2.78-3.68-1.99Z"/>
            <path class="cls-27" d="M169.49,26.96l5.92,3.68-2.44,2.44-3.48-6.13h0Z"/>
            <path class="cls-72" d="M169.29,31.1l.21-4.14,.12-2.28-.8,.85-3.48,3.66,.1,3.01,3.85-1.09h0Z"/>
            <path class="cls-27" d="M162.57,25.22l-.32,1.74,1.72,1.49,1.63,.83,2.66-3.05-4.86-3.2-.84,2.2h0Z"/>
            <path class="cls-60" d="M165.6,29.28l-3.35-2.32-1.05,2.61-.75,4.04,4.98-1.42,.17-2.92h0Z"/>
            <path class="cls-60" d="M156.62,26.63l3.71,.4,1.92-.07,1.16-3.93-6.79,3.6h0Z"/>
            <path class="cls-27" d="M162.25,26.96l-5.63-.33,1.19,2.69,2.64,4.29s1.8-6.65,1.8-6.65Z"/>
            <path class="cls-55" d="M146.14,42.04l4.27,.95-.67-1.5-.7-.82-1.42,.34-1.48,1.04h0Z"/>
            <path class="cls-60" d="M160.45,33.61l-3.22-1.77-2.01-.86-1.21-.91,.51-1.97,.81-1.57,.5-1.35,.79,1.45,3.83,6.98h0Z"/>
            <path class="cls-27" d="M154.01,30.06l-1.85-.59-1.85-1.46-.39-1.92,5.42,.44-1.32,3.54h0Z"/>
            <path class="cls-72" d="M154.01,30.06l-3.7-2.05-1.86,2.48,1.25,2.43,2.1,3.14,1.72-3.75,.5-2.25h-.01Z"/>
            <path class="cls-72" d="M145.45,37.89l-.84,4.87,4.44-2.11-1.9-3.27-.81-.04-.88,.55h-.01Z"/>
            <path class="cls-27" d="M148.45,30.5l-1.68,1.92-.6,1.44,2,.88,3.62,1.34-3.35-5.57h.01Z"/>
            <path class="cls-60" d="M148.45,30.5l-5.92,1.99,3.64,1.37,2.28-3.35h0Z"/>
            <path class="cls-60" d="M146.17,33.85l-3.27,4.8,4.24-1.26,4.65-1.32-5.62-2.22Z"/>
            <path class="cls-27" d="M154.01,30.06l-2.22,6.01,2.52,3.18,1.74-4.39,1.19-3.02-3.22-1.77h-.01Z"/>
            <path class="cls-3" d="M170.32,34.95l3.64,14.94-6.62,2.36-.88,1.57-.61,2.03-2.85,1.98-2.37,2.45-4.12-7.61-2.81-4.13-2.25-3.79-.47-1.87-1.94-2.22s21.28-5.71,21.28-5.71Z"/>
            <path class="cls-61" d="M155.58,46.32l-1.13-1.9-1.83,.95,1.59,.75,1.37,.2h0Z"/>
            <path class="cls-84" d="M157.47,38.4l5.77,15.28h2.36l.25,2.17-5.22,4.43-3.61-6.11-.41-1.3-.67-.52-2.25-3.81,3.48-2.07-1.14-2.17,1.9-1.12-2.44-4.26,1.97-.53h.01Z"/>
            <path class="cls-84" d="M160.93,40.63h2.03l2.32,3.13-.44-3.71-1.28-1.88-2.61,2.46h-.02Z"/>
            <path class="cls-84" d="M166.2,37.4l.92,4.91,.96-3.43,1.67-1.02-3.56-.45h0Z"/>
            <path class="cls-72" d="M163.54,38.18l-3.17,1.19,.55,1.27,2.61-2.46h0Z"/>
            <path class="cls-72" d="M166.2,37.4l3.26-.9,.3,1.35s-3.56-.45-3.56-.45Z"/>
            <path class="cls-55" d="M164.66,47.25l2.57-1.74,2.75,.19-2.2,1.65-3.12-.09h0Z"/>
            <path class="cls-7" d="M170.73,45.21l-3.05,1.95-4.07,.12,4.35,1.08,2.77-3.15Z"/>
            <path class="cls-72" d="M155.5,38.93l2.44,4.26-1.9,1.12-.99-1.61-3.59,2.06-2.41-4.08,6.46-1.73v-.02Z"/>
            <path class="cls-61" d="M167.34,52.25l-5.59,1.95,4.1,1.66,1.49-3.6h0Z"/>
            <path class="cls-61" d="M157.16,47.64l-.85,3.35-1.77-1.95,2.62-1.4h0Z"/>
            <path class="cls-61" d="M159.77,50.08l-2.75,4.08-1.06-1.82,1.27-1.36,2.54-.9Z"/>
            <path class="cls-9" d="M166.2,37.4l-2.66,.77,1.73,5.59,2.61-.79-1.68-5.58h0Z"/>
            <path class="cls-61" d="M167.88,42.98l-.91,1.7-1.7-.91,2.61-.79Z"/>
          </g>
          <g>
            <path class="cls-55" d="M157.51,46.28l2.26,3.81-3.81,2.26-2.26-3.81,3.81-2.26Zm-2.45,2.61l1.25,2.1,2.1-1.25-1.25-2.1-2.1,1.25Z"/>
            <path class="cls-7" d="M155.14,45.57l-.93,.55,1.73,2.92,.93-.55-1.73-2.92Z"/>
          </g>
          <g>
            <path class="cls-14" d="M163.92,42.18c0,.45-.36,.82-.81,.82s-.82-.36-.82-.82,.37-.82,.82-.82,.81,.36,.81,.82Z"/>
            <path class="cls-14" d="M169.43,40.36c0,.45-.37,.81-.82,.81s-.81-.36-.81-.81,.36-.81,.81-.81,.82,.36,.82,.81Z"/>
          </g>
        </g>
      </g>
      <g class="cls-29">
        <g>
          <g class="cls-59">
            <path class="cls-14" d="M233.8,97.71l-23.62-1.26-22.4,1.31,21.4,1.66,24.62-1.71Z"/>
          </g>
          <g>
            <path class="cls-20" d="M226.8,38.97l-11.61,7.32-2.33-2.22-1.28-2.2,1.34-.96,13.88-1.94Z"/>
            <path class="cls-75" d="M206.14,44.14l-1.85,.36-11.28,7.8,13.59-2.63,.1-3.25-.56-2.27h0Z"/>
            <path class="cls-78" d="M206.6,49.67l8.59-3.37-3.61-4.42-2.81,.72-2.63,1.55,.46,5.52Z"/>
            <path class="cls-26" d="M210.85,45.99l-2.83-4.5,1.36,5.78,2.28,5.06,2.04,5.17,1.49-1.08-1.78-4.34-2.57-6.09h.01Z"/>
            <path class="cls-75" d="M209.5,42.7l-1.81,.79,1.7,3.78,1.46-1.29-1.36-3.29h0Z"/>
            <path class="cls-26" d="M212.71,41.4l-8.16,3.39-.1-3.36,.79-4.66,.85-.67,.88,.04,3.69,2.74s2.05,2.52,2.05,2.52Z"/>
            <path class="cls-75" d="M206.98,36.14l19.82,2.83-14.09,2.43-5.73-5.26Z"/>
            <path class="cls-78" d="M205.25,36.77l-12.24,15.53,11.54-7.51,.7-8.02h0Z"/>
            <path class="cls-75" d="M206.52,34.91l-1.71,.61,.44,1.25,1.73-.63-.46-1.23h0Z"/>
          </g>
          <g>
            <g>
              <path class="cls-1" d="M199.04,87.76l.77,5.32,4.52-.69,4.63-1.55-5.01-1.94-3.21-.75-1.7-.4h0Z"/>
              <path class="cls-33" d="M199.82,93.08l3.3,1,1.9,.25,3.95-3.49-9.15,2.24Z"/>
            </g>
            <path class="cls-46" d="M205.02,94.33l4.44,3.08-5.2,.28-4.72-.28,.29-4.33,5.2,1.25h0Z"/>
            <path class="cls-1" d="M199.52,97.41h9.93v1.05h-9.93v-1.05h0Z"/>
          </g>
          <path class="cls-70" d="M230.76,63.92l-4.43,4.48-2.14,4.6,6.07,3.74,1.93-4.73-.2-3.79-1.23-4.31h0Z"/>
          <path class="cls-83" d="M231.98,68.22h7.08l.3,1.48-.56,2.69-8.55,4.35,1.73-8.52Z"/>
          <g>
            <path class="cls-84" d="M238.6,68.22l3.05-.25,4.35,.25-7.2,4.16-.2-4.16h0Z"/>
            <path class="cls-45" d="M248.86,66.92l-3.88-.11-3.39,1.11v.02l4.38,.32,2.9-1.34h0Z"/>
          </g>
          <g>
            <path class="cls-1" d="M190.68,81.18l-1.64-3.1-1.26-.21-.44,12.06h1.03l2.31-8.74h0Z"/>
            <path class="cls-33" d="M197.73,77.3l-5.28,1.43,1.27,3.57,2.75,4.65,1.43-3.76,.27-2.65-.44-3.23h0Z"/>
            <path class="cls-1" d="M192.44,78.73l-.95,3.28,.02,3.01,4.95,1.93-4.02-8.22Z"/>
            <path class="cls-46" d="M191.52,85.02l-3.14,4.91,.67-11.86,3.4,.65-.93,6.29h0Z"/>
          </g>
          <g>
            <path class="cls-1" d="M196.56,68.48l1.17,8.81,.44,3.23,1.99-6.21,.68-3.9-1.82-1.25-2.45-.69h0Z"/>
            <path class="cls-1" d="M230.76,64.04l-6.83,11.64-9.53-3.44-16.09-6.77,7.21-12.25,6.59,1.84,9.17,2.56,9.48,6.41h0Z"/>
          </g>
          <g>
            <path class="cls-81" d="M213.38,57.15l.48,3.95,1.21,4.03,4.15,.81,1.39,.61,2.45,.31,2.08,.88,2.12-2.39,1.2,.71-1.05,3.7-2.87,4.91-5.17,19.43-22.91-7.14,4.37-16.52-4.27-1.94,1.75-3.01,3.5,1.37,10,.31,.07-5.28-.18-4.71h1.68v-.03Z"/>
            <path class="cls-38" d="M200.83,70.42l8.79,6.9-2.93,4.94,7.05,8.04,7.31-2.6,2.63-9.84-18.48-8.74-4.38,1.31h0Z"/>
          </g>
          <path class="cls-83" d="M211.57,52.38l-6.05,.84-4.69,17.2,5.8-1.2,5.17-1.89,.23-7.24-.46-7.71h0Z"/>
          <g>
            <g>
              <path class="cls-3" d="M226.65,40.13l5.39,3.95,5.45-.63-6.73,20.59-6.58-1.44-3.56,3.95-2.83-4.88-3.57-9.69,1.31,.11,.74-.39-.5-4.01,3.72-1.15,.53,4.44,1.93-.46-1.55-9.83,6.24-.55h.01Z"/>
              <path class="cls-84" d="M226.65,40.13l-6.36,20.72,3.77,1.19-1.87,1.96-1.57,2.54-.76-2.76-1.35-2.02-4.29-9.79,2.05-.27,2.34-.21,1.14-.2,2.32-.45-1.3-10.22,5.88-.49h0Z"/>
              <path class="cls-61" d="M218.56,50.21l-.19-1.83-1.57,.16,1.76,1.68h0Z"/>
              <path class="cls-61" d="M216.27,51.69l3.49-.4-3.28,1.93-.2-1.52h-.01Z"/>
              <path class="cls-61" d="M230.02,54.2l-1.39,.62-.7-1.27,2.09,.66h0Z"/>
              <path class="cls-84" d="M226.71,47.66l1.48,1.16-.26,4.73,1.51-3.33,.28-2.58-3.01,.02Z"/>
              <path class="cls-84" d="M231.84,48.3l-1.43,1.92,.17,2.16,2.25-2.59,1.58-.2s-2.57-1.29-2.57-1.29Z"/>
              <path class="cls-61" d="M220.19,60.8l-1.68,.96,.65,2.37,1.45,2.41,1.84-2.02,1.59-2.49-3.87-1.24h.02Z"/>
              <path class="cls-48" d="M232.07,47.5l2.63,1.19-.29,.9-2.58-1.29,.24-.81h0Z"/>
              <path class="cls-48" d="M229.96,46.84l-3.12-.11-.13,.93h3l.25-.82Z"/>
              <g>
                <path class="cls-84" d="M223.58,54.4l8.37,2.67-4.33,1.07s-4.04-3.74-4.04-3.74Z"/>
                <path class="cls-6" d="M225.58,55.59l4.52,1.43-2.41,.69-2.1-2.13h0Z"/>
              </g>
              <path class="cls-48" d="M230.02,36.3l-6.86,.67,1.58,2.33,1.92,.83,5.34,4.56-.39-4.09-1.58-4.29h0Z"/>
              <path class="cls-79" d="M223.16,36.96l-5.64,.71,1.99,2.38,1.61,.89,5.54-.82-3.5-3.17h0Z"/>
              <path class="cls-48" d="M217.52,37.68l-1.75,10,3.5-.49,.49,4.09,2.59-.31-1.24-10.03-3.59-3.27h0Z"/>
              <path class="cls-38" d="M231.99,44.68l-1.97-8.39,7.47,7.15s-5.5,1.24-5.5,1.24Z"/>
            </g>
            <path class="cls-9" d="M229.72,47.62l2.11,.69-1.81,5.89-2.09-.66,1.8-5.92h-.01Z"/>
            <g>
              <path class="cls-70" d="M214.22,51.97l.21,8.28,.64,4.88,5.54,1.42-2.11-4.78-4.29-9.79h0Z"/>
              <path class="cls-83" d="M224.06,62.04l-3.44,4.51,2.4,.63,2.13,.56,1.69-2.11,1.19-2.4s-3.97-1.19-3.97-1.19Z"/>
              <path class="cls-82" d="M211.81,67.15l3.27-2.02-.86-13.15-2.65,.4,.24,14.77h0Z"/>
              <path class="cls-82" d="M225.15,67.73l1.92,2.61,3.69-6.3-2.72-.81-2.88,4.51h0Z"/>
            </g>
          </g>
          <g>
            <g>
              <path class="cls-78" d="M250.17,56.95h-15.2v2.71l10.17,.36,5.03-.36v-2.71Z"/>
              <path class="cls-26" d="M250.17,61.8l-6.68,.3-8.52-.3v-2.15h15.2v2.15Z"/>
              <path class="cls-75" d="M250.17,61.8h-15.2v2.15l7.87,.19,7.33-.19v-2.15Z"/>
              <path class="cls-26" d="M250.17,65.02l-7.53,.09-7.68-.09v-1.07h15.2v1.07h0Z"/>
              <path class="cls-78" d="M250.17,65.02h-15.2v1.05l8.33,.16,6.87-.16v-1.05Z"/>
              <path class="cls-26" d="M250.17,67.15l-7.23,.22-7.97-.22v-1.07h15.2v1.07Z"/>
              <path class="cls-20" d="M251.3,67.15h-17.46v1.07h17.46v-1.07h0Z"/>
              <path class="cls-26" d="M238.01,56.95h-3.05l1.53,1.51,1.52-1.51h3.04l1.52,1.51,1.53-1.51h3.04l1.53,1.51,1.52-1.51h-3.05l-1.52,1.51-1.52-1.51h-3.05l-1.53,1.51-1.51-1.51h0Z"/>
            </g>
            <g>
              <g>
                <g>
                  <path class="cls-47" d="M249.39,51.75l-.75-.98-.75,.98,.75,1.13,.75-1.13Z"/>
                  <path class="cls-47" d="M246.31,51.75l-.73-.98-.76,.98,.76,1.13,.73-1.13Z"/>
                  <path class="cls-47" d="M240.24,51.75l-.75-.98-.75,.98,.75,1.13,.75-1.13Z"/>
                  <path class="cls-47" d="M237.16,51.75l-.73-.98-.76,.98,.76,1.13,.73-1.13Z"/>
                </g>
                <path class="cls-78" d="M249.08,52.48h-.86v4.56h.86v-4.56Z"/>
                <path class="cls-78" d="M239.93,52.48h-.86v4.56h.86v-4.56Z"/>
                <path class="cls-78" d="M246,52.48h-.85v4.56h.85v-4.56Z"/>
                <path class="cls-78" d="M236.85,52.48h-.85v4.56h.85v-4.56Z"/>
              </g>
              <g>
                <path class="cls-20" d="M244.34,55.2h-3.54l1.76,1.78,1.78-1.78Z"/>
                <path class="cls-26" d="M244.34,55.2l-1.78-1.77-1.76,1.77h3.54Z"/>
              </g>
            </g>
          </g>
          <g>
            <path class="cls-84" d="M214.49,71.62l2.84,.97-1.41,.88-1.43-1.85Z"/>
            <g>
              <path class="cls-20" d="M220.15,70.85l3.03,1.19,4.98,7.92-13.36,7.93-1.09-1.84,11.61-6.93s-5.17-8.27-5.17-8.27Z"/>
              <path class="cls-20" d="M222.32,72.58l.86-.53-3.03-1.19,.74,1.17,.68,.48,.75,.07Z"/>
              <path class="cls-82" d="M220.89,72.02l1.43,.55,4.36,7.08-1.06-.08-.29-.44-2.57-3.39-1.85-3.71h-.02Z"/>
              <path class="cls-81" d="M225.32,79.13l1.36,.53-11.73,6.93-1.24-.53,6.45-4.38,5.17-2.55h0Z"/>
              <path class="cls-75" d="M220.15,70.85l-12.65,7.82,4.54,8.38,13.28-7.93s-5.17-8.27-5.17-8.27Z"/>
              <path class="cls-20" d="M216.37,78.63l-4.23,.97-2.41-2.32,1.66-1.07,4.98,2.41h0Z"/>
            </g>
            <path class="cls-3" d="M214.49,71.62l-2.6,1.1-1.47,1.35,1.95,4.28,2.61-1.22,2.33-1.86-2.82-3.65h0Z"/>
            <path class="cls-61" d="M217.31,75.27l-.94,3.37-4-.28,4.94-3.08h0Z"/>
          </g>
          <path class="cls-70" d="M200.83,70.42l9.57,3.63,4.11-2.4-2.69-4.49-10.99,3.27h0Z"/>
          <g>
            <path class="cls-14" d="M232.62,49.87c-.37,0-.68,.29-.69,.66v.03c-.02,.38,.28,.71,.66,.72,.38,.02,.71-.28,.72-.66v-.07c0-.37-.29-.68-.66-.69h-.03Z"/>
            <path class="cls-14" d="M227.66,48.51c-.39,0-.7,.31-.7,.7h0c0,.39,.31,.7,.7,.7s.7-.31,.7-.7h0c0-.39-.31-.7-.7-.7h0Z"/>
          </g>
        </g>
      </g>
    </g>
  </g>
</svg>