<?xml version="1.0" encoding="utf-8"?>
<!-- Generator: Adobe Illustrator 27.0.0, SVG Export Plug-In . SVG Version: 6.00 Build 0)  -->
<svg version="1.1" id="_图层_2" xmlns="http://www.w3.org/2000/svg" xmlns:xlink="http://www.w3.org/1999/xlink" x="0px" y="0px"
	 viewBox="0 0 392.5 126.7" style="enable-background:new 0 0 392.5 126.7;" xml:space="preserve">
<style type="text/css">
	.st0{fill:#B164F4;}
	.st1{clip-path:url(#SVGID_00000146467890648025895440000003455788446240592027_);}
	.st2{fill:#2AA5A6;}
	.st3{fill:url(#SVGID_00000062151768928710957040000017623019491879311488_);}
	.st4{fill:#EFA035;}
	.st5{fill:#DB418D;}
	.st6{fill:#68B8E7;}
	.st7{opacity:0.1;}
	.st8{clip-path:url(#SVGID_00000106859059310296305190000012920136864644615331_);}
	.st9{fill:#FFFFFF;}
	.st10{fill:#DF462D;}
	.st11{clip-path:url(#SVGID_00000075884712628666603810000002665896476916440246_);}
	.st12{clip-path:url(#SVGID_00000078742251104421808510000015765494544826901641_);}
	.st13{clip-path:url(#SVGID_00000169523633307116141290000013863847457563541659_);}
	.st14{clip-path:url(#SVGID_00000067224531708313368720000005547159492794069918_);}
	.st15{clip-path:url(#SVGID_00000149339769815979574130000010654130598768318867_);}
	.st16{clip-path:url(#SVGID_00000128454950569888593530000004572181754610436766_);}
	.st17{clip-path:url(#SVGID_00000031191321475960326520000017610090836848916620_);}
	.st18{clip-path:url(#SVGID_00000041989869375759341810000015785220836487379111_);}
	.st19{clip-path:url(#SVGID_00000106136074163742477870000013721257712597476995_);}
	.st20{clip-path:url(#SVGID_00000163771182841430410340000010285529386176614582_);}
	.st21{clip-path:url(#SVGID_00000054263548849699135940000015690220873852658599_);}
	.st22{clip-path:url(#SVGID_00000165210550003893227010000014770254081811739279_);}
	.st23{clip-path:url(#SVGID_00000070083520981474615410000004641236400431857834_);}
	.st24{clip-path:url(#SVGID_00000037650896429778792510000000059514873832856999_);}
	.st25{opacity:0.2;}
	.st26{clip-path:url(#SVGID_00000087382402697003670880000009629436763282418855_);}
	.st27{fill:#221E1F;}
	.st28{clip-path:url(#SVGID_00000005971601252288460360000018257704798778655419_);}
	.st29{clip-path:url(#SVGID_00000158016104494161167050000004450800561718217132_);}
	.st30{fill:#2A2B2B;}
	.st31{fill:#BF9478;}
	.st32{fill:#886550;}
	.st33{fill:#714B5D;}
	.st34{fill:#DBB9A2;}
	.st35{fill:#916078;}
	.st36{fill:#512E41;}
	.st37{fill:#9D9FA0;}
	.st38{fill:#4F5152;}
	.st39{fill:#464646;}
	.st40{fill:#AE8499;}
	.st41{fill:#CC9DB4;}
	.st42{fill:#E5C7B4;}
	.st43{fill:#6D6F72;}
	.st44{clip-path:url(#SVGID_00000034799374162394137790000004737138767401248645_);}
	.st45{fill:#8F8F8F;}
	.st46{fill:#DDDDDC;}
	.st47{fill:#C4C4C4;}
	.st48{fill:#33755B;}
	.st49{fill:#51A885;}
	.st50{fill:#718A54;}
	.st51{fill:#95BB6A;}
	.st52{fill:#58733B;}
	.st53{fill:#425E2E;}
	.st54{fill:#6FC0A0;}
	.st55{fill:#708955;}
	.st56{fill:#EBEBEB;}
	.st57{opacity:0.99;}
	.st58{clip-path:url(#SVGID_00000112595585775966262220000006402113142092418176_);}
	.st59{fill:#040000;}
	.st60{fill:#B88C18;}
	.st61{fill:#DBC130;}
	.st62{fill:#C5A71F;}
	.st63{fill:#816227;}
	.st64{fill:#997526;}
	.st65{fill:#AF871E;}
	.st66{fill:#7B2D1E;}
	.st67{fill:#A04124;}
	.st68{fill:#C24E1D;}
	.st69{fill:#E38210;}
	.st70{fill:#F39718;}
	.st71{fill:#ECD05F;}
	.st72{fill:#715725;}
	.st73{clip-path:url(#SVGID_00000150817660446235505090000001619463435860931228_);}
	.st74{fill:#287486;}
	.st75{fill:#3A97AF;}
	.st76{fill:#31899F;}
	.st77{fill:#5DB6CE;}
	.st78{fill:#1D7274;}
	.st79{fill:#358D8F;}
	.st80{fill:#135C5D;}
	.st81{fill:#4FA2A3;}
	.st82{fill:#6EC1C3;}
	.st83{fill:#896550;}
</style>
<g id="_图层_1-2">
	<path class="st0" d="M13.4,0h365.7c7.4,0,13.4,6,13.4,13.4v90.2c0,7.4-6,13.4-13.4,13.4H13.4C6,117,0,111,0,103.6V13.4
		C0,6,6,0,13.4,0z"/>
	<g>
		<defs>
			<path id="SVGID_1_" d="M16.5,0H376c9.1,0,16.5,7.4,16.5,16.5v83.9c0,9.1-7.4,16.5-16.5,16.5H16.5C7.4,117,0,109.6,0,100.5V16.5
				C0,7.4,7.4,0,16.5,0z"/>
		</defs>
		<clipPath id="SVGID_00000164502096693646009980000006911008101538007937_">
			<use xlink:href="#SVGID_1_"  style="overflow:visible;"/>
		</clipPath>
		<g style="clip-path:url(#SVGID_00000164502096693646009980000006911008101538007937_);">
			<g>
				<path class="st2" d="M381.7-33.8l-59.9,59.9c-2.8,2.8-7.4,2.8-10.2,0s-2.8-7.4,0-10.2L371.5-44c2.8-2.8,7.4-2.8,10.2,0
					S384.5-36.7,381.7-33.8"/>
				<path class="st2" d="M147.6,71.6l-80.9,80.9c-3.8,3.8-10,3.8-13.8,0l0,0c-3.8-3.8-3.8-10,0-13.8l80.9-80.9
					c3.8-3.8,10-3.8,13.8,0l0,0C151.4,61.7,151.4,67.8,147.6,71.6"/>
				
					<radialGradient id="SVGID_00000178920412751989209170000002266394132534723253_" cx="1168.6509" cy="-645.747" r="115.83" gradientTransform="matrix(-3.378943e-03 0.44 -1.02 -7.833004e-03 -521.5763 -456.4788)" gradientUnits="userSpaceOnUse">
					<stop  offset="0" style="stop-color:#E2D4FF"/>
					<stop  offset="1" style="stop-color:#B164F4"/>
				</radialGradient>
				<path style="fill:url(#SVGID_00000178920412751989209170000002266394132534723253_);" d="M236.9,105.7L99,108.1
					c-6.6,0-81.8-7.7-81.8-14.4V33.4c0-6.6-3.4-21.4,3.2-21.4l228.2-0.6c6.6,0,0.3,14.8,0.3,21.4v60.9c0,6.6,2.9,22.6-3.8,22.6"/>
				<path class="st4" d="M297-65.5L216,15.5c-3.8,3.8-10,3.8-13.8,0l0,0c-3.8-3.8-3.8-10,0-13.8l80.9-80.9c3.8-3.8,10-3.8,13.8,0
					l0,0C300.8-75.4,300.8-69.3,297-65.5"/>
				<path class="st5" d="M23.5,83.4l-80.9,80.9c-3.8,3.8-10,3.8-13.8,0l0,0c-3.8-3.8-3.8-10,0-13.8L9.7,69.6c3.8-3.8,10-3.8,13.8,0
					l0,0C27.3,73.4,27.3,79.6,23.5,83.4"/>
				<path class="st5" d="M164.3,115l-80.9,80.9c-3.8,3.8-10,3.8-13.8,0l0,0c-3.8-3.8-3.8-10,0-13.8l80.9-80.9c3.8-3.8,10-3.8,13.8,0
					l0,0C168.1,105,168.1,111.2,164.3,115"/>
				<path class="st5" d="M279.3,115l-80.9,80.9c-3.8,3.8-10,3.8-13.8,0l0,0c-3.8-3.8-3.8-10,0-13.8l80.9-80.9c3.8-3.8,10-3.8,13.8,0
					l0,0C283.1,105,283.1,111.2,279.3,115"/>
				<path class="st6" d="M331.6-39L250.7,42c-3.8,3.8-10,3.8-13.8,0l0,0c-3.8-3.8-3.8-10,0-13.8l80.9-80.9c3.8-3.8,10-3.8,13.8,0
					l0,0C335.4-48.9,335.4-42.7,331.6-39"/>
				<path class="st4" d="M335.4,99.5l-80.9,80.9c-3.8,3.8-10,3.8-13.8,0l0,0c-3.8-3.8-3.8-10,0-13.8l80.9-80.9
					c3.8-3.8,10-3.8,13.8,0l0,0C339.2,89.5,339.2,95.7,335.4,99.5"/>
				<path class="st6" d="M25.8,36.5c0,5.3-4.3,9.7-9.7,9.7s-9.7-4.3-9.7-9.7s4.3-9.7,9.7-9.7S25.8,31.2,25.8,36.5"/>
				<path class="st5" d="M384.4,17.8c0,5.3-4.3,9.7-9.7,9.7s-9.7-4.3-9.7-9.7s4.3-9.7,9.7-9.7S384.4,12.5,384.4,17.8"/>
				<path class="st2" d="M365.8,103.2c0,5.3-4.3,9.7-9.7,9.7s-9.7-4.3-9.7-9.7s4.3-9.7,9.7-9.7S365.8,97.8,365.8,103.2"/>
				<path class="st5" d="M97.8,9.7c0,5.3-4.3,9.7-9.7,9.7s-9.7-4.3-9.7-9.7S82.7,0,88.1,0S97.8,4.3,97.8,9.7"/>
				<g class="st7">
					<g>
						<defs>
							<rect id="SVGID_00000155108382468315701960000014763213072577359511_" x="312.6" y="-43.1" width="74.3" height="74.3"/>
						</defs>
						<clipPath id="SVGID_00000114785816871552659620000002895754349374956974_">
							<use xlink:href="#SVGID_00000155108382468315701960000014763213072577359511_"  style="overflow:visible;"/>
						</clipPath>
						<g style="clip-path:url(#SVGID_00000114785816871552659620000002895754349374956974_);">
							<path class="st9" d="M384.8-30.8l-59.9,59.9c-2.8,2.8-7.4,2.8-10.2,0c-2.8-2.8-2.8-7.4,0-10.2L374.6-41
								c2.8-2.8,7.4-2.8,10.2,0C387.6-38.2,387.6-33.6,384.8-30.8"/>
						</g>
					</g>
				</g>
				<path class="st10" d="M444.2,32.1L384.3,92c-2.8,2.8-7.4,2.8-10.2,0s-2.8-7.4,0-10.2L434,21.9c2.8-2.8,7.4-2.8,10.2,0
					C447,24.7,447,29.3,444.2,32.1"/>
				<path class="st10" d="M73.5,104.8l-59.9,59.9c-2.8,2.8-7.4,2.8-10.2,0c-2.8-2.8-2.8-7.4,0-10.2l59.9-59.9
					c2.8-2.8,7.4-2.8,10.2,0C76.3,97.5,76.3,102,73.5,104.8"/>
				<g class="st7">
					<g>
						<defs>
							<rect id="SVGID_00000102546817585123792060000011697525928579087550_" x="4.4" y="95.6" width="74.3" height="74.3"/>
						</defs>
						<clipPath id="SVGID_00000029748430615878137990000017061245571669471406_">
							<use xlink:href="#SVGID_00000102546817585123792060000011697525928579087550_"  style="overflow:visible;"/>
						</clipPath>
						<g style="clip-path:url(#SVGID_00000029748430615878137990000017061245571669471406_);">
							<path class="st9" d="M76.6,107.9l-59.9,59.9c-2.8,2.8-7.4,2.8-10.2,0c-2.8-2.8-2.8-7.4,0-10.2l59.9-59.9
								c2.8-2.8,7.4-2.8,10.2,0S79.4,105.1,76.6,107.9"/>
						</g>
					</g>
				</g>
				<g class="st7">
					<g>
						<defs>
							<rect id="SVGID_00000145048989972843828130000016288730636562057147_" x="375.1" y="22.9" width="74.3" height="74.3"/>
						</defs>
						<clipPath id="SVGID_00000032633628079836007470000006962578318193209761_">
							<use xlink:href="#SVGID_00000145048989972843828130000016288730636562057147_"  style="overflow:visible;"/>
						</clipPath>
						<g style="clip-path:url(#SVGID_00000032633628079836007470000006962578318193209761_);">
							<path class="st9" d="M447.3,35.2l-59.9,59.9c-2.8,2.8-7.4,2.8-10.2,0s-2.8-7.4,0-10.2L437.1,25c2.8-2.8,7.4-2.8,10.2,0
								C450.1,27.8,450.1,32.4,447.3,35.2"/>
						</g>
					</g>
				</g>
				<path class="st4" d="M95-46.9L35.1,13c-2.8,2.8-7.4,2.8-10.2,0c-2.8-2.8-2.8-7.4,0-10.2l59.9-59.9c2.8-2.8,7.4-2.8,10.2,0
					C97.8-54.3,97.8-49.7,95-46.9"/>
				<g class="st7">
					<g>
						<defs>
							<rect id="SVGID_00000155117106226712974520000016537222879355454366_" x="25.9" y="-56.1" width="74.3" height="74.3"/>
						</defs>
						<clipPath id="SVGID_00000017489483179025447280000003239502725129328549_">
							<use xlink:href="#SVGID_00000155117106226712974520000016537222879355454366_"  style="overflow:visible;"/>
						</clipPath>
						<g style="clip-path:url(#SVGID_00000017489483179025447280000003239502725129328549_);">
							<path class="st9" d="M98.1-43.8L38.2,16.1c-2.8,2.8-7.4,2.8-10.2,0c-2.8-2.8-2.8-7.4,0-10.2L87.9-54c2.8-2.8,7.4-2.8,10.2,0
								S100.9-46.6,98.1-43.8"/>
						</g>
					</g>
				</g>
				<g class="st7">
					<g>
						<defs>
							<rect id="SVGID_00000023241800843963649700000012664697175384512442_" x="54.2" y="59.2" width="100.4" height="100.4"/>
						</defs>
						<clipPath id="SVGID_00000103245967036915017610000013166494707074564736_">
							<use xlink:href="#SVGID_00000023241800843963649700000012664697175384512442_"  style="overflow:visible;"/>
						</clipPath>
						<g style="clip-path:url(#SVGID_00000103245967036915017610000013166494707074564736_);">
							<path class="st9" d="M151.7,75.8l-80.9,80.9c-3.8,3.8-10,3.8-13.8,0l0,0c-3.8-3.8-3.8-10,0-13.8L137.9,62
								c3.8-3.8,10-3.8,13.8,0l0,0C155.5,65.8,155.5,72,151.7,75.8"/>
						</g>
					</g>
				</g>
				<g class="st7">
					<g>
						<defs>
							<rect id="SVGID_00000170248375159241211150000018290518958708262299_" x="203.6" y="-78" width="100.4" height="100.4"/>
						</defs>
						<clipPath id="SVGID_00000163793734665332971950000007841309867129321395_">
							<use xlink:href="#SVGID_00000170248375159241211150000018290518958708262299_"  style="overflow:visible;"/>
						</clipPath>
						<g style="clip-path:url(#SVGID_00000163793734665332971950000007841309867129321395_);">
							<path class="st9" d="M301.1-61.3l-80.9,80.9c-3.8,3.8-10,3.8-13.8,0l0,0c-3.8-3.8-3.8-10,0-13.8l80.9-80.9
								c3.8-3.8,10-3.8,13.8,0l0,0C304.9-71.3,304.9-65.1,301.1-61.3"/>
						</g>
					</g>
				</g>
				<g class="st7">
					<g>
						<defs>
							<rect id="SVGID_00000086674097230823981150000001793031487680900004_" x="-69.9" y="70.9" width="100.4" height="100.4"/>
						</defs>
						<clipPath id="SVGID_00000034085250400774954630000004846430957129045435_">
							<use xlink:href="#SVGID_00000086674097230823981150000001793031487680900004_"  style="overflow:visible;"/>
						</clipPath>
						<g style="clip-path:url(#SVGID_00000034085250400774954630000004846430957129045435_);">
							<path class="st9" d="M27.6,87.6l-81,80.9c-3.8,3.8-10,3.8-13.8,0l0,0c-3.8-3.8-3.8-10,0-13.8l80.9-80.9
								c3.8-3.8,10-3.8,13.8,0l0,0C31.4,77.6,31.4,83.8,27.6,87.6"/>
						</g>
					</g>
				</g>
				<g class="st7">
					<g>
						<defs>
							<rect id="SVGID_00000122699638638721930650000008901601110179543707_" x="70.9" y="102.5" width="100.4" height="100.4"/>
						</defs>
						<clipPath id="SVGID_00000101801642575325067180000010144255088982967737_">
							<use xlink:href="#SVGID_00000122699638638721930650000008901601110179543707_"  style="overflow:visible;"/>
						</clipPath>
						<g style="clip-path:url(#SVGID_00000101801642575325067180000010144255088982967737_);">
							<path class="st9" d="M168.5,119.1l-80.9,80.9c-3.8,3.8-10,3.8-13.8,0l0,0c-3.8-3.8-3.8-10,0-13.8l80.9-80.9
								c3.8-3.8,10-3.8,13.8,0l0,0C172.3,109.2,172.3,115.3,168.5,119.1"/>
						</g>
					</g>
				</g>
				<g class="st7">
					<g>
						<defs>
							<rect id="SVGID_00000005234292055746263100000007791665376842455724_" x="185.9" y="102.5" width="100.4" height="100.4"/>
						</defs>
						<clipPath id="SVGID_00000155138770189272330600000015033913975015318957_">
							<use xlink:href="#SVGID_00000005234292055746263100000007791665376842455724_"  style="overflow:visible;"/>
						</clipPath>
						<g style="clip-path:url(#SVGID_00000155138770189272330600000015033913975015318957_);">
							<path class="st9" d="M283.5,119.1l-80.9,80.9c-3.8,3.8-10,3.8-13.8,0l0,0c-3.8-3.8-3.8-10,0-13.8l80.9-80.9
								c3.8-3.8,10-3.8,13.8,0l0,0C287.3,109.2,287.3,115.3,283.5,119.1"/>
						</g>
					</g>
				</g>
				<g class="st7">
					<g>
						<defs>
							<rect id="SVGID_00000119080072194133335990000008893561237374593417_" x="238.2" y="-51.4" width="100.4" height="100.4"/>
						</defs>
						<clipPath id="SVGID_00000080886554803294020990000006120227750809515655_">
							<use xlink:href="#SVGID_00000119080072194133335990000008893561237374593417_"  style="overflow:visible;"/>
						</clipPath>
						<g style="clip-path:url(#SVGID_00000080886554803294020990000006120227750809515655_);">
							<path class="st9" d="M335.8-34.8l-80.9,80.9c-3.8,3.8-10,3.8-13.8,0l0,0c-3.8-3.8-3.8-10,0-13.8L322-48.6
								c3.8-3.8,10-3.8,13.8,0l0,0C339.6-44.8,339.6-38.6,335.8-34.8"/>
						</g>
					</g>
				</g>
				<g class="st7">
					<g>
						<defs>
							<rect id="SVGID_00000068642983825333781350000014744422889201469884_" x="241.9" y="87" width="100.4" height="100.4"/>
						</defs>
						<clipPath id="SVGID_00000143606145215990339790000014050117809095043771_">
							<use xlink:href="#SVGID_00000068642983825333781350000014744422889201469884_"  style="overflow:visible;"/>
						</clipPath>
						<g style="clip-path:url(#SVGID_00000143606145215990339790000014050117809095043771_);">
							<path class="st9" d="M339.5,103.6l-80.9,80.9c-3.8,3.8-10,3.8-13.8,0l0,0c-3.8-3.8-3.8-10,0-13.8l80.9-80.9
								c3.8-3.8,10-3.8,13.8,0l0,0C343.3,93.7,343.3,99.8,339.5,103.6"/>
						</g>
					</g>
				</g>
				<g class="st7">
					<g>
						<defs>
							<rect id="SVGID_00000174590733001722810950000005955479380253133981_" x="10.6" y="31" width="19.3" height="19.3"/>
						</defs>
						<clipPath id="SVGID_00000156585366149259907590000016904702992724274072_">
							<use xlink:href="#SVGID_00000174590733001722810950000005955479380253133981_"  style="overflow:visible;"/>
						</clipPath>
						<g style="clip-path:url(#SVGID_00000156585366149259907590000016904702992724274072_);">
							<path class="st9" d="M29.9,40.7c0,5.3-4.3,9.7-9.7,9.7s-9.7-4.3-9.7-9.7s4.3-9.7,9.7-9.7S29.9,35.3,29.9,40.7"/>
						</g>
					</g>
				</g>
				<g class="st7">
					<g>
						<defs>
							<rect id="SVGID_00000177443270102014704360000015472662785738098621_" x="369.2" y="12.3" width="19.3" height="19.3"/>
						</defs>
						<clipPath id="SVGID_00000131329051318060063810000010187733067588937135_">
							<use xlink:href="#SVGID_00000177443270102014704360000015472662785738098621_"  style="overflow:visible;"/>
						</clipPath>
						<g style="clip-path:url(#SVGID_00000131329051318060063810000010187733067588937135_);">
							<path class="st9" d="M388.6,22c0,5.3-4.3,9.7-9.7,9.7s-9.7-4.3-9.7-9.7s4.3-9.7,9.7-9.7S388.6,16.6,388.6,22"/>
						</g>
					</g>
				</g>
				<g class="st7">
					<g>
						<defs>
							<rect id="SVGID_00000059275910808238903320000006415732843973714095_" x="350.6" y="97.7" width="19.3" height="19.3"/>
						</defs>
						<clipPath id="SVGID_00000101822482723732858230000000826919719782255517_">
							<use xlink:href="#SVGID_00000059275910808238903320000006415732843973714095_"  style="overflow:visible;"/>
						</clipPath>
						<g style="clip-path:url(#SVGID_00000101822482723732858230000000826919719782255517_);">
							<path class="st9" d="M369.9,107.3c0,5.3-4.3,9.7-9.7,9.7s-9.7-4.3-9.7-9.7s4.3-9.7,9.7-9.7S369.9,102,369.9,107.3"/>
						</g>
					</g>
				</g>
				<g class="st7">
					<g>
						<defs>
							<rect id="SVGID_00000113354846839047252730000012917578454325008517_" x="82.6" y="4.2" width="19.3" height="19.3"/>
						</defs>
						<clipPath id="SVGID_00000109011460203646107870000006060670187881349516_">
							<use xlink:href="#SVGID_00000113354846839047252730000012917578454325008517_"  style="overflow:visible;"/>
						</clipPath>
						<g style="clip-path:url(#SVGID_00000109011460203646107870000006060670187881349516_);">
							<path class="st9" d="M101.9,13.8c0,5.3-4.3,9.7-9.7,9.7s-9.7-4.3-9.7-9.7s4.3-9.7,9.7-9.7S101.9,8.5,101.9,13.8"/>
						</g>
					</g>
				</g>
			</g>
		</g>
	</g>
	<g class="st25">
		<g>
			<defs>
				<rect id="SVGID_00000142173850442907642940000006764682611959870346_" y="117" width="196" height="9.7"/>
			</defs>
			<clipPath id="SVGID_00000016070691560283254410000003119978421193170317_">
				<use xlink:href="#SVGID_00000142173850442907642940000006764682611959870346_"  style="overflow:visible;"/>
			</clipPath>
			<g style="clip-path:url(#SVGID_00000016070691560283254410000003119978421193170317_);">
				<path class="st27" d="M0,121.7L0,121.7c0,2.7,2.3,4.8,4.9,4.7L196,117H4.7C2.1,117,0,119.1,0,121.7z"/>
			</g>
		</g>
	</g>
	<g class="st25">
		<g>
			<defs>
				<rect id="SVGID_00000148652015636682873830000011233469396729669770_" x="196.5" y="117" width="196" height="9.7"/>
			</defs>
			<clipPath id="SVGID_00000168824195733296331660000005620303429530347658_">
				<use xlink:href="#SVGID_00000148652015636682873830000011233469396729669770_"  style="overflow:visible;"/>
			</clipPath>
			<g style="clip-path:url(#SVGID_00000168824195733296331660000005620303429530347658_);">
				<path class="st27" d="M392.5,121.7L392.5,121.7c0,2.7-2.3,4.8-5,4.7L196.5,117h191.3C390.4,117,392.5,119.1,392.5,121.7
					L392.5,121.7L392.5,121.7z"/>
			</g>
		</g>
	</g>
	<g>
		<path class="st9" d="M271.6,38.7h7.8v-1.4h-9.6v-2.7h22.4v2.7h-9.5v1.4h7.8v11.7h-3.1v-1.3h-4.7c-0.1,1.3-0.4,2.3-0.9,3.2
			c2.8,0.7,6.4,1,10.8,1.1l-1.8,3.2c-5.1-0.2-8.9-0.9-11.6-1.9c-1.7,0.9-4.2,1.6-7.6,2.3c-0.5-0.8-1.3-1.9-2.2-3.1
			c2.8-0.3,5-0.6,6.5-1c-1.1-0.8-2.1-1.6-2.9-2.5l1.7-1.2h-3L271.6,38.7L271.6,38.7z M274.8,42.7h4.7v-1.5h-4.7V42.7z M274.8,46.6
			h4.7V45h-4.7V46.6z M279.4,49.1h-4c0.9,0.8,2,1.5,3.2,2.1C279,50.6,279.3,49.9,279.4,49.1L279.4,49.1z M287.4,41.2h-4.7v1.5h4.7
			V41.2z M287.4,46.6V45h-4.7v1.5H287.4z"/>
		<path class="st9" d="M316.7,53.1c-0.4,1.1-0.8,2.2-1,3.1c-1,0-3.4,0-7,0h-4.1c-1.6,0-3-0.2-4.2-0.6s-2.2-0.9-2.9-1.7l-2.7,2.8
			l-1.3-3.6c0.8-0.8,1.6-1.5,2.4-2.2V45h-2.2v-3h5.3v9.3c1.2,1.3,3,1.9,5.5,1.9C311.1,53.3,315.2,53.2,316.7,53.1L316.7,53.1z
			 M296.7,34c1.2,1.5,2.2,3,3.2,4.3l-2.7,1.8c-1-1.6-1.9-3.2-2.9-4.6L296.7,34L296.7,34z M299.8,44.2h3.4c0-0.5,0.1-1.9,0.1-4h-2.5
			v-2.8h2.5v-3.6h3.1v3.6h3.5v-3.6h3.1v3.6h2.5v2.8H313v4h3.4V47H313v5.5h-3.1V47H306c-0.4,2.3-1.1,4.3-2.1,6c-1-0.8-2-1.6-3-2.3
			c0.8-1,1.4-2.2,1.8-3.6h-2.9L299.8,44.2L299.8,44.2z M306.3,44.2h3.6v-4h-3.5C306.4,41.8,306.3,43.1,306.3,44.2L306.3,44.2z"/>
		<path class="st9" d="M317.7,43.5h22.6v3.5h-22.6L317.7,43.5L317.7,43.5z"/>
		<path class="st9" d="M360.9,46.3l2.4,2.3c-4.8,4.5-11.5,7.2-20.1,8.2c-0.5-1.2-1.1-2.2-1.7-3.3c3.9-0.3,7.4-1,10.4-2v-6.8h3.3v5.4
			C357.4,49.2,359.3,47.9,360.9,46.3L360.9,46.3z M341.6,41.4h3.4v-6h3.3v6h3.9v-7.7h3.3v2.4h7.2v2.8h-7.2v2.5h9.1v2.9h-22.9
			L341.6,41.4L341.6,41.4z M347.5,45.1l2.3,2c-1.9,1.8-3.9,3.5-6.1,5c-0.5-0.7-1.2-1.5-2-2.5C343.8,48.3,345.8,46.8,347.5,45.1
			L347.5,45.1z"/>
	</g>
	<g>
		<path class="st9" d="M268,68.1c1.9-1.3,4.1-2.9,6.5-4.7h-16v-3.3H280v3.2l-8.3,6.2v7.6c0,1.5-0.4,2.6-1.1,3.3s-1.9,1.1-3.4,1.1
			l-4.3,0c-0.2-1.2-0.5-2.3-0.8-3.6c1.5,0.1,2.7,0.2,3.7,0.2c0.9,0,1.5-0.2,1.8-0.6s0.4-0.9,0.4-1.5L268,68.1L268,68.1z"/>
		<path class="st9" d="M293.2,75.3h4.8v-2.6h-2.2c-0.3,0.8-0.6,1.5-1,2.1c-0.8-0.5-1.6-0.8-2.3-1.1v5c0,0.9-0.2,1.6-0.5,2.1
			s-0.8,0.8-1.4,0.9s-1.3,0.2-2.1,0.2l-0.3-1.5h-1.8V76h-1.4c-0.2,2.7-0.7,4.7-1.4,6.3c-0.8-0.9-1.5-1.8-2.2-2.4
			c0.9-2,1.3-4.9,1.3-8.8v-3.9c-0.1,0.2-0.3,0.3-0.5,0.4c-0.2-1-0.5-2.1-0.8-3.3c1.6-1.6,2.9-3.5,3.7-5.6l2.9,0.4
			c-0.2,0.5-0.4,0.9-0.6,1.4h4.2v2.2l-1.2,2.1h2v8.2c0.9-1.5,1.5-3.1,1.8-4.7l2.5,0.3c-0.1,0.5-0.2,1-0.3,1.4h1.4v-2h3v2h3.3v2.6
			H301v2.6h3.8v2.6H301V82h-3v-4.1h-4.8L293.2,75.3L293.2,75.3z M284.9,64.9h2.8l1.1-2h-2.5C285.9,63.5,285.4,64.2,284.9,64.9z
			 M285.3,73.8h1.2v-2.2h-1.2C285.3,71.7,285.3,72.4,285.3,73.8L285.3,73.8z M285.4,69.4h1.2v-2.2h-1.2V69.4z M290.1,67.1h-1.3v2.2
			h1.3V67.1z M288.8,73.8h1.3v-2.2h-1.3V73.8z M290.1,76h-1.3v3.2c0.6,0,0.9-0.1,1.1-0.2s0.2-0.5,0.2-1V76z M298.5,67.7
			c-0.1-1-0.4-1.9-0.6-2.7c-0.5,1.2-1.6,2.3-3.1,3.3c-0.6-0.8-1.3-1.7-2.1-2.5c1.8-0.9,2.7-2,2.8-3.5h-2.2v-2.5h11
			c0,3.3-0.2,5.3-0.5,6s-0.8,1.2-1.4,1.5S300.5,67.7,298.5,67.7L298.5,67.7z M297.9,64.9c0.8,0,1.4,0.1,1.8,0.1c0.6,0,1-0.1,1.1-0.4
			s0.3-1,0.3-2.2h-2.6C298.4,63.3,298.2,64.2,297.9,64.9L297.9,64.9z"/>
		<path class="st9" d="M315,58.9l3.9,0.5l-0.9,2.3h8.9V82h-3.4v-1.4h-12.3V82h-3.4V61.7h6.5C314.6,60.6,314.8,59.7,315,58.9
			L315,58.9z M323.5,64.8h-12.3v2.3h12.3V64.8z M311.2,72.3h12.3V70h-12.3V72.3z M311.2,77.5h12.3v-2.3h-12.3V77.5z"/>
		<path class="st9" d="M346.9,71.8v-0.9h-11.6v5c0,1.5,0.7,2.2,2.1,2.2h9.3c0.6,0,1.1-0.1,1.5-0.4s0.6-0.6,0.7-1.2s0.3-1.8,0.5-3.7
			c1.4,0.6,2.6,1.1,3.6,1.4c-0.5,2.3-0.8,3.8-1,4.6s-0.8,1.4-1.7,1.9s-2,0.6-3.5,0.6h-10c-3.3,0-5-1.7-5-5v-8.7h15.1v-4.5h-15.7V60
			h19.2v11.8L346.9,71.8L346.9,71.8z"/>
	</g>
	<g>
		<defs>
			
				<rect id="SVGID_00000087404796667224133720000011340186625113029268_" x="14.3" y="23.1" transform="matrix(2.896848e-02 -0.9996 0.9996 2.896848e-02 -10.3362 113.8822)" width="78.2" height="78.2"/>
		</defs>
		<clipPath id="SVGID_00000040541933791609245360000018439292090020597634_">
			<use xlink:href="#SVGID_00000087404796667224133720000011340186625113029268_"  style="overflow:visible;"/>
		</clipPath>
		<g style="clip-path:url(#SVGID_00000040541933791609245360000018439292090020597634_);">
			<g>
				<g>
					<g class="st7">
						<path class="st30" d="M27.3,97.2L46,95.7L68.5,99l-25.3,2.1L27.3,97.2L27.3,97.2z"/>
					</g>
					<path class="st31" d="M42,88.4l-1.5,5l-1.8,1.7L37.8,94l-0.3-7.3l0.7-4.5L42,88.4z"/>
					<path class="st32" d="M38.5,85.5l3.9,1.4l-0.5,1.6l-4.5-1.8C37.5,86.7,38.5,85.5,38.5,85.5z"/>
					<path class="st31" d="M50.7,79.4v7.8l-0.4,5.3l-1.8,2.4l-1.1-1.9l-1.1-4.3L50.7,79.4L50.7,79.4z"/>
					<path class="st32" d="M47.7,84.8l3,2.4l-4.4,1.4L45.9,87L47.7,84.8L47.7,84.8z"/>
					<path class="st33" d="M48,98.5l-0.8,0l-0.5-3.3l0.6-2.2l1.9,1.4l-0.5,1.3L48,98.5L48,98.5z"/>
					<path class="st33" d="M37.8,94l-1.4,2.8l0.9,2.5L37.8,94L37.8,94z"/>
					<path class="st34" d="M40.5,93.4l0.9,2L40,97l-2.6,0.4l0.4-3.4C37.8,94,40.5,93.4,40.5,93.4z"/>
					<path class="st35" d="M37.4,97.4l4-2l0.5,0.9L41,97.5l-3.6,0.8L37.4,97.4L37.4,97.4z"/>
					<path class="st35" d="M37.3,98.3l4.5-2l1.3,2.2L41,98.8L37.3,98.3L37.3,98.3z"/>
					<path class="st34" d="M50.2,92.4l2.2,2.5l-1.2,1.2l-1.8,0.6l-2.1-3.8C47.3,92.9,50.2,92.4,50.2,92.4z"/>
					<path class="st35" d="M49.4,96.7l3-1.8l0.7,0.7L52,96.8l-2.1,0.6L49.4,96.7L49.4,96.7z"/>
					<path class="st35" d="M49.9,97.5l3.2-1.9l2.1,2.1L52.4,98L49.9,97.5L49.9,97.5z"/>
					<path class="st33" d="M37.3,99.3l5.8,0.2l0-1l-5.8-0.2C37.3,98.3,37.3,99.3,37.3,99.3z"/>
					<path class="st33" d="M48.8,95.6L48.4,96l0.2,0.4l2,2.2l4.6,0.1l0-1.1l-3.8-0.1L48.8,95.6L48.8,95.6z"/>
				</g>
				<path class="st36" d="M33.1,83.8l10.4-2l11.2,2.9l-2.5-9.8l-5.7-6.9l-9.6,8.4L36,77L33.1,83.8L33.1,83.8z"/>
				<g>
					<path class="st32" d="M74.9,61.3l-1.8,1.3l-1.3-0.8l0.1-1.8C71.8,60,74.9,61.3,74.9,61.3z"/>
					<path class="st31" d="M69.6,57.8l5.3-0.4l0,4l-5.6-1C69.4,60.3,69.6,57.8,69.6,57.8z"/>
					<path class="st37" d="M69.9,61.5l16.9-10.8l0.7,1.1l-17,10.7L69.9,61.5L69.9,61.5z"/>
					<path class="st38" d="M69.4,61.7l0.5-0.2l0.6,1.1l-0.3,0.4L69.4,61.7z"/>
					<path class="st38" d="M86.9,50.7l0.5-0.8l1.1,1.7l-0.9,0.3C87.6,51.8,86.9,50.7,86.9,50.7z"/>
					<path class="st34" d="M69,58.3l4.8,1.1l-0.5,1.1l-4.5,0L69,58.3L69,58.3z"/>
				</g>
				<g>
					<g>
						<path class="st35" d="M69.9,56.9l-4.5,0.4l-1.6,1.8l0.4,2.2l5,1.2L69.9,56.9L69.9,56.9z"/>
						<path class="st33" d="M58.7,56.9l6.7,0.4l-1.2,4l-5.8,1.3L58.7,56.9L58.7,56.9z"/>
					</g>
					<path class="st33" d="M50,58l2-0.4l0.9-1.1l5.8,0.4l3.1,3.1l-3.4,2.6l-7.6,1.7L50,58L50,58z"/>
				</g>
				<g>
					<path class="st39" d="M18.6,46.9l5.8,8.3l1.7,0.1l1.7-5l-0.8-2L18.6,46.9L18.6,46.9z"/>
					<path class="st38" d="M50.8,41.9L31.1,57.5l-6.7-2.2l8.2-22.5L50.8,41.9L50.8,41.9z"/>
					<path class="st39" d="M50.8,41.9l-2.4,7.2l-17.3,8.3l9.4-20.7L50.8,41.9L50.8,41.9z"/>
					<path class="st39" d="M53.6,27.6l4.8,6.8L54,44.5l-3.5-17.4C50.5,27.1,53.6,27.6,53.6,27.6z"/>
					<path class="st39" d="M53.8,26.7l4.6,7.7l-7.9-7.3C50.4,27.1,53.8,26.7,53.8,26.7z"/>
					<path class="st31" d="M41.4,56.6l-8.2-20.8l5.1-3.4l5,6.4L48.6,52l-2.2,8.9L41.4,56.6L41.4,56.6z"/>
					<path class="st34" d="M52.7,29.2l2.3,22.4l-12.3,1.8l-4.7-20.9L52.7,29.2L52.7,29.2z"/>
					<path class="st32" d="M48.5,52.5l-2.1,8.5l-5-7.5L48.5,52.5L48.5,52.5z"/>
					<path class="st39" d="M36.8,34.8l3.2,6.1l-1,0.8l0.4,8.1l0.6,3.3l-9.2-15.4L36.8,34.8L36.8,34.8z"/>
					<path class="st34" d="M39,41.7l-2.9,0.8l1.4,3.9l2.6-1L39,41.7L39,41.7z"/>
					<path class="st32" d="M38.4,42.8L37,43.2l1.7,1.1L38.4,42.8z"/>
					<path class="st33" d="M39.1,44.9l0.7,2.2l-1.2,0.3l-0.5-2.2L39.1,44.9L39.1,44.9z"/>
				</g>
				<g>
					<path class="st33" d="M36.3,60.3l-3.1,1.4L31.9,69l4.3,2.8L38,71l0.5-2.1l0.4-4.2l-3-6.9L36.3,60.3L36.3,60.3z"/>
					<path class="st33" d="M33.8,58.8l-0.5,2.9l4.5,2.4l1-0.9l-0.8-7.2l-3.7,0.8L33.8,58.8L33.8,58.8z"/>
					<path class="st33" d="M31.9,69l4.3,2.8L38,71l0.5-2.1C38.5,68.9,31.9,69,31.9,69z"/>
				</g>
				<g>
					<path class="st35" d="M42.4,86.9l-5.5-10.6l1.4-3.1l8.3-6.6l5.1,6.8l-1,13.8L42.4,86.9L42.4,86.9z"/>
					<path class="st33" d="M37.5,86.7l-0.5-10.4l1.4-3.1l8.3-6.6l1.5,5.7l-5.7,14.6L37.5,86.7L37.5,86.7z"/>
				</g>
				<g>
					<path class="st35" d="M36.4,57.8l1.6-2l0.8-0.3l3.8,2.3l4,2.1l1.3,2.5L46.4,69l-2.9,3.3L37,76.8l1.5-7.9L36.4,57.8L36.4,57.8z"
						/>
					<path class="st40" d="M51.8,69.6l1.4,6.4l-5.1-3.7l1.6,3.1L46.4,69l0.1-9l3.5-2.4L49.2,56l3,0.8l0.5,0.9L51.8,69.6L51.8,69.6z"
						/>
					<path class="st41" d="M45.5,63.7l1-0.9l0.8,1l-0.8,1C46.5,64.8,45.5,63.7,45.5,63.7z"/>
					<path class="st41" d="M45.5,67.3l1-0.9l0.8,1l-0.8,0.9L45.5,67.3L45.5,67.3z"/>
					<g>
						<path class="st40" d="M43.5,72.3L33.1,83.8L33,75.6l5.4-6.7C38.5,68.9,43.5,72.3,43.5,72.3z"/>
						<path class="st41" d="M51.8,69.6l3.9,8.8l-1,6.2l-4.9-9.3l-1.6-3.1L51.8,69.6L51.8,69.6z"/>
					</g>
					<path class="st41" d="M48.1,72.3l-4.6,0l2.9-3.3C46.4,69,48.1,72.3,48.1,72.3z"/>
				</g>
				<g>
					<g>
						<path class="st9" d="M47.6,49.3l-1.9-0.8l2.1-0.6l1.5,0.3l1.7-0.2l0.6,0.1l-2.8,1.2L47.6,49.3L47.6,49.3z"/>
						<path class="st33" d="M51.5,48.3l-2.7-1l-3.1,1.3l3.1-0.2C48.8,48.4,51.5,48.3,51.5,48.3z"/>
						<path class="st40" d="M48.6,50.1l3-1.8l-2.7,0.7l-3.1-0.4L48.6,50.1L48.6,50.1z"/>
					</g>
					<path class="st42" d="M49,38.7l1.2,6L48.1,45l-0.7-6.1C47.4,38.8,49,38.7,49,38.7z"/>
					<path class="st32" d="M49,46l1.2-1.3L48.1,45L49,46L49,46z"/>
					<path class="st31" d="M43.2,39.3l4.1-0.4l0.7,6.1L43.2,39.3z"/>
					<path class="st31" d="M50,43.4l2.2-5.4L49,38.7L50,43.4L50,43.4z"/>
					<g>
						<path class="st39" d="M42.8,37.9l3.5,1l-4.7,0.4L42.8,37.9L42.8,37.9z"/>
						<path class="st39" d="M53.1,37.7L49,38.7l3.3-2.4L53.1,37.7z"/>
					</g>
				</g>
				<g>
					<path class="st40" d="M38.7,55.6l-4.5,1l-0.4,2.1l0,0l5.8-1.7L38.7,55.6L38.7,55.6z"/>
					<g>
						<path class="st33" d="M48.2,53.5l1.1,2.4l0.7,1l0.1,0.6l-1.5,2.1l-2,0.3L48.2,53.5L48.2,53.5z"/>
						<path class="st33" d="M38.7,55.6l1.3-2.5l6.6,6.9l-5-0.2C41.5,59.9,38.7,55.6,38.7,55.6z"/>
					</g>
					<path class="st41" d="M49.3,55.9l3.6,0.6l-0.1,1.2L50,57.6L49.8,57L49.3,55.9L49.3,55.9z"/>
				</g>
				<g>
					<path class="st30" d="M51.5,38.9c-0.5,0-0.9,0.4-0.9,0.9s0.4,0.9,0.9,0.9s0.9-0.4,0.9-0.9S52,39,51.5,38.9z"/>
					<path class="st30" d="M44.7,39.9c-0.5,0-0.9,0.4-0.9,0.9s0.4,0.9,0.9,0.9s0.9-0.4,0.9-0.9S45.2,39.9,44.7,39.9z"/>
				</g>
				<g>
					<path class="st38" d="M52,23.1l-19.4,9.6l-4,4.3L40,40.9L55.5,29L52,23.1z"/>
					<path class="st39" d="M52,23.1l-20.4,8.8L28.6,37L52,23.1z"/>
					<path class="st43" d="M52,23.1L40,40.9l18.7-11.8C58.7,29.2,52,23.1,52,23.1z"/>
				</g>
			</g>
		</g>
	</g>
	<g>
		<defs>
			<rect id="SVGID_00000021816822265465945020000010620821475864768176_" x="73.2" y="24.1" width="76.2" height="76.2"/>
		</defs>
		<clipPath id="SVGID_00000093873291115733634790000017748162542552295813_">
			<use xlink:href="#SVGID_00000021816822265465945020000010620821475864768176_"  style="overflow:visible;"/>
		</clipPath>
		<g style="clip-path:url(#SVGID_00000093873291115733634790000017748162542552295813_);">
			<g>
				<g>
					<path class="st45" d="M121.9,43.1l-5.4,0.6l0.2,2.7l0.3,3.2l2.8-1.7L121.9,43.1L121.9,43.1z"/>
					<path class="st46" d="M116.1,40.2l1.2,4.1l4.6-1.2L116.1,40.2L116.1,40.2z"/>
					<path class="st45" d="M113.7,54.8l3.9-0.7l2.1,1.4l2.9-4.9l-3.1,0.8L113.7,54.8L113.7,54.8z"/>
					<path class="st47" d="M119.8,48l-3.6-0.3l-1.7,6.7l8.1-3.8L119.8,48L119.8,48z"/>
					<path class="st47" d="M97.6,49.8l-4.4,0.9L91.6,54l6.1,0.6l0-2.5L97.6,49.8L97.6,49.8z"/>
					<path class="st45" d="M97.2,46.8L91,47.9l2.1,2.8l6.1,1.7l-0.7-2.5L97.2,46.8L97.2,46.8z"/>
					<path class="st46" d="M97.6,42.4l-1.2,0.2l-0.8-1.2L91,47.9l6.3-0.4L97.6,42.4L97.6,42.4z"/>
					<path class="st45" d="M100.2,52.9l-8.6,1l2.9,2.4l6.2-1.6L100.2,52.9z"/>
				</g>
				<g>
					<path class="st32" d="M128,59.8l2.1-0.4l2.4-1.3l2.7-4.8l-4.5,1.2l-2.8,2.8L128,59.8L128,59.8z"/>
					<path class="st48" d="M145.2,47.5l-0.6,0.1l-3.9,2.3l-1.5,0.7L138,53l-2.6,0.2l-0.3,1.1l-2.7,2l-1.5,0.1l-2.8,2l1.9,1.2
						l5.7-4.8l2.9-0.5l1.6-2.9L145.2,47.5L145.2,47.5z"/>
					<path class="st49" d="M132.4,56.8l2.8-2.7l0.3-1.1l-4.4,3.1L132.4,56.8z"/>
					<path class="st49" d="M144.6,47.6l0.6-0.1l-0.8-0.4l-5.3,3.4h1.4L144.6,47.6L144.6,47.6z"/>
					<path class="st34" d="M127.8,55.3l3.1-2.6l4.3-0.2l0.3,0.6l-1.4,1l-1.9,0.4l-1,1.8l-1.2,0.9l-1.8,0.2
						C128,57.3,127.8,55.3,127.8,55.3z"/>
					<path class="st31" d="M137.2,54.4l-3.4,5.1l-3.7-0.1l5.3-6.2L137.2,54.4L137.2,54.4z"/>
				</g>
				<g>
					<path class="st50" d="M127.6,63.2l-1.3-7.5l-3.8,0.7l-5.6,6.6C116.8,63,127.6,63.2,127.6,63.2z"/>
					<path class="st51" d="M116.4,53.4l-1.6,3.9l3.3,5l4.4-6L116.4,53.4L116.4,53.4z"/>
					<path class="st52" d="M114.2,63.1l6,2.9l4.6-1.5l2.7-1.3l-9.5-0.8l-2.3-4.6l-3.7-7.2L114.2,63.1L114.2,63.1z"/>
					<path class="st48" d="M127.8,55.3l-1.7,0.4l0.9,7.5l-6.8,2.7l1.4,0.6l7.1-2.4L127.8,55.3L127.8,55.3z"/>
				</g>
				<g>
					<path class="st50" d="M115.7,62.7l3.4-0.5l-1.4-5.7L115.7,62.7L115.7,62.7z"/>
					<path class="st50" d="M100.4,57.4l-1.9-0.2l-5-0.4l6.8,5.2l0.5,1.6l3.2,6.1l4-4.1L100.4,57.4L100.4,57.4z"/>
					<path class="st53" d="M98.1,64.6l2.3,3.8l2.3,1l1.6-2.4l-3.6-5.8L98.1,64.6L98.1,64.6z"/>
					<path class="st49" d="M106.6,56.9c2.9,2.9,5.8,5.7,8.8,8.6c-0.1-4.3-0.1-8.7-0.2-13.1c-0.2-0.1-6-0.3-6-0.3
						c-0.4,0.4-1,1-1.5,1.8C107,55.1,106.7,56.2,106.6,56.9L106.6,56.9z"/>
					<path class="st49" d="M106.2,54l-0.5,2.6l-5.7,2.7l8.9,5.8l0.1,0.1l5.7-2.2L106.2,54L106.2,54z"/>
					<path class="st54" d="M98.5,59l1.6,0.4l6.7-2.8l-9.8-3.8l-2.7,3.1L98.5,59z"/>
					<path class="st48" d="M111.8,49.9L111.8,49.9L111.8,49.9L111.8,49.9L111.8,49.9z"/>
					<path class="st48" d="M108.4,64.3l-14.1-8.3l-0.8,0.9l14.6,8.7l5.5,6.7l2.6-9.2C116.1,63,108.4,64.3,108.4,64.3z"/>
					<path class="st48" d="M106.8,54.1L103,52l-5.6-1.2L97,52.8l9.8,3.8L106.8,54.1L106.8,54.1z"/>
					<path class="st48" d="M106.8,56.4c0.9-1.4,1.9-2.8,2.8-4.1c-0.4-1-0.8-1.9-1.2-2.9c-0.6,1-1.1,1.9-1.7,2.8
						C106.7,53.6,106.7,55,106.8,56.4L106.8,56.4z"/>
				</g>
				<g>
					<g class="st7">
						<path class="st30" d="M85.6,98.3l18.9,2.1l29.3-2.3L106,96L85.6,98.3z"/>
					</g>
					<path class="st48" d="M109.9,91.9l-0.1,3.7l3.2-1l1.8-1.4l0.7-2.7L109.9,91.9L109.9,91.9z"/>
					<path class="st48" d="M96,90.6l-1,5h2.8l2.6-1.7l0.6-1.2L96,90.6L96,90.6z"/>
					<path class="st49" d="M114.9,93.2l-5,2.4v1.3l4.3,0.4l5.2-0.4L114.9,93.2L114.9,93.2z"/>
					<path class="st48" d="M109.8,96.9h9.5v1.3h-9.5V96.9z"/>
					<path class="st49" d="M100.5,93.9l1.2,3.7l-3.3,0.6l-3.8-0.6l0.5-2.1L100.5,93.9L100.5,93.9z"/>
					<path class="st48" d="M94.6,97.7h7.1v1.3h-7.1V97.7z"/>
				</g>
				<g>
					<path class="st50" d="M119,62l-1.6,0.2l-8.2,14.2l-4.9-9.9l-4,1.3l-7.8,20.9l10.1,6.3l0,0l17-6.4C119.5,88.6,119,62,119,62z"/>
					<path class="st51" d="M115.6,63.2l-3.4,5.8l-1.7-1.5l-2.5-2.1l-3.8,1.2l-1.5,27L118.2,62l-2.5,0.8L115.6,63.2L115.6,63.2z"/>
					<path class="st48" d="M102.7,93.6l-10.3-4.9L92,90.2l10.6,4.8l0,0l17-4.9l0-1.6L102.7,93.6L102.7,93.6z"/>
					<path class="st55" d="M119,61.9l-4.2,0c0,0-0.4,5.5-0.4,5.6s4.7-0.4,4.7-0.4S119,61.9,119,61.9z"/>
				</g>
				<g>
					<path class="st31" d="M95.4,74.2L94.6,77l-0.3,1.2l1.4,0.4l0.8-4.3C96.4,74.3,95.4,74.1,95.4,74.2z"/>
					<path class="st34" d="M92,71.7l-1.8,1.9l0.1,2.4l2.5,2.2l1.6,0l0,0l0.9-2.7L92,71.7L92,71.7z"/>
					<path class="st32" d="M95.4,74l-5.3-2.4l0,2l5,1.9l0.2-1.4L95.4,74L95.4,74z"/>
					<path class="st31" d="M94.3,78.2l-4.1-2.2l0.6,3.7l2.6,1.5L94.3,78.2L94.3,78.2L94.3,78.2z"/>
				</g>
				<g>
					<path class="st51" d="M93.5,56.8l-4.4,12l9.3-1.3l0.8-7.7L93.5,56.8L93.5,56.8z"/>
					<path class="st50" d="M89.1,68.8L89.1,68.8l5.7,6l1.8-1.3l2.8-13.9L89.1,68.8L89.1,68.8z"/>
					<path class="st52" d="M99.2,59.8l-4.7,14.3l3.1-1.2l1.5-1.7l2.1-9.8C101.2,61.5,99.2,59.8,99.2,59.8z"/>
					<path class="st48" d="M94.4,75.9l4.3-3l0.4-1.6l-4.6,2.9l-5.5-5.3l-0.5,1.4L94.4,75.9L94.4,75.9z"/>
				</g>
				<g>
					<path class="st34" d="M117.9,50.2l-1.8-18.7l-5-4.4l-3.5,2.6l-6.9-1l-1.3,1l2.2,5.1l3,18l6.5-1.3L117.9,50.2L117.9,50.2z"/>
					<path class="st56" d="M111,28.1l5,3.4l-2.8-4.4l-2.5-0.9l-0.6,0.9L111,28.1L111,28.1z"/>
					<path class="st46" d="M105.3,28.2l2.7,2.8l3-2.8l-0.3-2l-5.2-1.9L105.3,28.2L105.3,28.2z"/>
					<path class="st47" d="M100.2,27.8v0.6l0.4,0.4l7.4,2.1h0l-2.5-6.7L100.2,27.8L100.2,27.8z"/>
					<path class="st31" d="M102.3,32l-1.7-3.4l-3.5,5.1l1.4,1.9v4.8l-1.3-1.7l-1.1,1.5l-1.8,0.5l1.1,4.2l1.5-0.3l0.9,0.3l-0.6,2.5
						l0.2,3.4l6.1,2.1l1.2,0.3L102.3,32L102.3,32z"/>
					<path class="st32" d="M97,44.7l0.3,2.8l1.6-3.2L97,44.7z"/>
					<path class="st32" d="M95.5,41.3l2.3,1.8l-0.5-2.2C97.3,40.9,95.5,41.3,95.5,41.3z"/>
					<path class="st32" d="M107.7,52.2l-4.3,0.8l3.2,1.2L107.7,52.2L107.7,52.2z"/>
					<path class="st45" d="M94.2,31.9l2,8.4L97,40l1.7,1.1l1-6.4l-1.9-1.3l2.9-4.7l-0.5-0.9L94.2,31.9L94.2,31.9z"/>
				</g>
				<g class="st57">
					<path class="st48" d="M108.4,64.3l-14.1-8.3l-0.8,0.9l14.6,8.7l5.5,6.7l2.6-9.2C116.1,63,108.4,64.3,108.4,64.3z"/>
				</g>
				<g>
					<path class="st47" d="M110.6,43.8l-4.9,3.8l1.6,16.7l4.8,5.2l0.3,0.7l-0.2,0.7l-0.6,1.8l2.7,2.2l-0.4-20.3l-2-10.5L110.6,43.8
						L110.6,43.8z"/>
					<path class="st56" d="M115.3,69.3l2.9-6.2l-1.6-16.7l-3.8-2.9l-0.8,0.7l2.4,30.8l1.8-2.9l-0.7-1.4l-0.4-0.7L115.3,69.3
						L115.3,69.3z"/>
					<path class="st53" d="M115.4,70.7l-3.2,0.2l-0.1-1.4l3.2-0.2L115.4,70.7z"/>
				</g>
				<path class="st32" d="M113.9,46.8l-4.4,0.4l-0.1-0.9l4.4-0.4L113.9,46.8z"/>
				<g>
					<path class="st45" d="M116.9,40.2L116.9,40.2L116.9,40.2L116.9,40.2z"/>
					<path class="st31" d="M104.3,36.4l6.3,7.5l0.1-6l-2.3-2.6l2.2-0.2l0.9,3.1l0.9,1.8l1.8-5l-2.7,0l-0.8,0.1l-2.2,0.2l-0.8,0.2
						L104.3,36.4L104.3,36.4z"/>
					<path class="st45" d="M107.4,34.7l0.2,0.8l-3.3,1.1l-0.3-0.9C104,35.7,107.4,34.7,107.4,34.7z"/>
					<path class="st45" d="M111.1,34.1l0.2,0.9l2.8,0.1l0.2-0.6L111.1,34.1z"/>
					<path class="st42" d="M110.5,35l1.4,2.3l0.9,6.2l-2.2,0.3l-0.7-6.1l-1.5-2.5L110.5,35L110.5,35z"/>
					<path class="st45" d="M112.8,43.5l-2.2,0.3l1.4,1L112.8,43.5L112.8,43.5z"/>
				</g>
				<g>
					<path class="st30" d="M106.9,38c0.4,0,0.8,0.4,0.8,0.9s-0.4,0.8-0.9,0.8s-0.8-0.4-0.8-0.9S106.5,38,106.9,38z"/>
					<path class="st30" d="M113.3,37.1c0.4,0,0.8,0.4,0.8,0.9s-0.4,0.8-0.9,0.8s-0.8-0.4-0.8-0.9S112.8,37,113.3,37.1z"/>
				</g>
			</g>
		</g>
	</g>
	<g>
		<defs>
			<rect id="SVGID_00000103260813612300768220000009416185147672444821_" x="123.2" y="23.1" width="76.5" height="76.5"/>
		</defs>
		<clipPath id="SVGID_00000150088117957208619160000011363406293136272305_">
			<use xlink:href="#SVGID_00000103260813612300768220000009416185147672444821_"  style="overflow:visible;"/>
		</clipPath>
		<g style="clip-path:url(#SVGID_00000150088117957208619160000011363406293136272305_);">
			<g>
				<g>
					<g class="st7">
						<path class="st59" d="M183.4,98l-21.2-1.5L142,97.7l19.2,1.9L183.4,98L183.4,98z"/>
					</g>
					<path class="st34" d="M167.9,95.7l0.2,2h3l1-0.5l0.9-0.8l-2.7-2.7l-1.3,0L167.9,95.7L167.9,95.7z"/>
					<path class="st31" d="M168.1,97.7l-0.2-1.6l1.8,1.6l4.3-2.2l1.9,2.2H168.1L168.1,97.7z"/>
					<path class="st34" d="M157,93.7l1.3,1.7l0.4,2.7h-2.4l-1.1-1l-1.2-1.4l0.9-1.6L157,93.7L157,93.7z"/>
					<path class="st31" d="M154.2,95.6l-2.4,2.5h6.9l-0.3-1.8l-1.2,1.8L154.2,95.6z"/>
					<path class="st32" d="M169.6,93.1l-1.1,0.1l-0.9,0.5l0.2,2l2.4-1.9L169.6,93.1L169.6,93.1z"/>
					<path class="st32" d="M158,93.4l-0.9-0.5l-1.4,0l-0.7,1.2l3.3,1.3L158,93.4L158,93.4z"/>
					<path class="st60" d="M170.4,77.4l-4.4,1.8l-4.4,2.5l2.7,7.3l4.2-0.9l4.1-1.6L170.4,77.4L170.4,77.4z"/>
					<g>
						<path class="st61" d="M164.3,89l1,2.8l3.8-2.3l3.6-2.9L164.3,89L164.3,89z"/>
						<path class="st62" d="M165.3,91.8l7.4-5.2l1.4,5.2l-4.4,0.4L165.3,91.8L165.3,91.8z"/>
						<path class="st61" d="M165.3,91.8l1,2.3l7.9-2.4L165.3,91.8L165.3,91.8z"/>
					</g>
					<path class="st60" d="M161.6,81.7l-0.6,7.1l-4.4-0.5l-5.2-1.2l0.8-9.3l5.5,1.9L161.6,81.7L161.6,81.7z"/>
					<g>
						<path class="st61" d="M151.4,87.1l4.9,2.8l4.4,1.8l0.2-3L151.4,87.1L151.4,87.1z"/>
						<path class="st62" d="M151.4,87.1l-0.5,4.7l5.3,0.2l4.4-0.3L151.4,87.1L151.4,87.1z"/>
						<path class="st61" d="M160.7,91.8l-9.8,0.1l9.6,2.1L160.7,91.8L160.7,91.8z"/>
					</g>
				</g>
				<g>
					<path class="st39" d="M165.9,55.8l2,0.7l1.1,1l1.4-0.2l2.7,2.8l-0.8,2.5l-2,2.9L153.1,66l-2.1-1.7l-1.6-2.1l3.9-4.8l1.5-0.2
						l0.8-0.8l2.2-1l3.4,2.5L165.9,55.8L165.9,55.8z"/>
					<g>
						<path class="st63" d="M170.4,77.4l-8.8,4.3l-9.4-3.9l0.9-11.8l1.5-1.7l1.5-0.8l11.5-0.6l1.4,0.7l1.5,2L170.4,77.4L170.4,77.4z
							"/>
						<path class="st60" d="M170.4,57.4l-0.1,8.2l-2.8-2.7l0.3-6.4L170.4,57.4L170.4,57.4z"/>
						<path class="st60" d="M155.5,56.4l0.5,7.2l-2.9,2.5l0.2-8.7L155.5,56.4L155.5,56.4z"/>
						<g>
							<path class="st64" d="M165.6,73.6h-7.8v-7.9h7.8V73.6z"/>
							<path class="st64" d="M170.4,69.9l-0.9-0.6l-0.9,1.6l1.2-0.2l0.6,1.4L170.4,69.9L170.4,69.9z"/>
							<path class="st62" d="M165.3,74.6l-1.3,1l0.2,1l1.6,1.2l0.6-2.6C166.5,75.3,165.3,74.6,165.3,74.6z"/>
							<path class="st62" d="M157.9,72.8l2-0.7l-0.2-1.7l1-0.4l-0.6-1.6l-0.5,0.2l0.1,0.8l-1.3-0.1l-0.5,1.2l-0.2,1L157.9,72.8
								L157.9,72.8z"/>
							<path class="st64" d="M161.8,75.1l-1.3-0.3l0.3,1.4l0.9-0.2L161.8,75.1z"/>
							<path class="st65" d="M157.9,70.6l-1.6,0.2l0.8,2h0.9C157.9,72.8,157.9,70.6,157.9,70.6z"/>
						</g>
					</g>
				</g>
				<path class="st34" d="M176.9,63.3l-3.8-3.2l-2.8,5.5l2.8,0.9l2.6-0.9L176.9,63.3L176.9,63.3z"/>
				<path class="st34" d="M153.1,66l-4.6,3.8l-1.3-5l2.3-2.7L153.1,66L153.1,66z"/>
				<g>
					<path class="st61" d="M146.3,61.8l-9.4,1.4l-3,8l4.3,6.7l8.6,3l8.5-1.9l-0.8-8l-6.1-1.2L146.3,61.8L146.3,61.8z"/>
					<path class="st31" d="M144.2,65.9l-1,1l-1.5,0.9l2.1,3.3l2.3-1.9l-1.2-1.8C144.8,67.4,144.2,65.9,144.2,65.9z"/>
					<path class="st32" d="M145.3,69.8l-0.8-2.3l-2.9,0.3l2.5-1.9l1.9,3.3L145.3,69.8z"/>
					<path class="st34" d="M144.6,67.5l-2.9,0.3l-0.8,3.1l0.9,0.5L144.6,67.5L144.6,67.5z"/>
					<path class="st39" d="M140,66.1l-1.8-0.7l-0.7,1.8l1.8,0.7L140,66.1z"/>
					<path class="st66" d="M138.8,69.3l-1.8-0.7l-0.7,1.8l1.8,0.7L138.8,69.3z"/>
					<path class="st67" d="M140,72.9l-1.8-0.7l-0.7,1.8l1.8,0.7L140,72.9z"/>
					<path class="st68" d="M142.9,75.3l-1.8-0.7l-0.7,1.8l1.8,0.7L142.9,75.3z"/>
					<path class="st69" d="M146.2,76.5l-1.8-0.7l-0.7,1.8l1.8,0.7L146.2,76.5z"/>
					<path class="st70" d="M150,76.6l-1.8-0.7l-0.7,1.8l1.8,0.7L150,76.6z"/>
					<path class="st71" d="M153.2,74.7l-1.8-0.7l-0.7,1.8l1.8,0.7L153.2,74.7z"/>
					<path class="st32" d="M144.5,67.5l-0.8,3.6l-0.8-1.3L144.5,67.5z"/>
					<path class="st62" d="M142.9,69.8l-1.2,1.6l2-0.3L142.9,69.8L142.9,69.8z"/>
				</g>
				<path class="st31" d="M173.1,66.6l6.8-5.8l2.2-0.1l-0.4,2.6l-3.8,4.9L173.1,66.6z"/>
				<g>
					<path class="st32" d="M179.9,60.7l1.9,2.5l1.7-0.6l-1.4-3.5L179.9,60.7z"/>
					<path class="st39" d="M173.9,52.3l8.9,9.6l1-0.8l0.6-1L173.9,52.3z"/>
					<path class="st60" d="M186.2,64.4l0.3,1.4l2.4,0.3l-0.5-1.3l-1.1-0.3l-0.6-0.5L186.2,64.4L186.2,64.4z"/>
					<path class="st63" d="M186.6,61.8l0.7,2.8l-2.6-0.6l0.9-1.3C185.6,62.7,186.6,61.8,186.6,61.8z"/>
					<path class="st45" d="M181.6,60.7l3.1,3.3l1.9-2.2l-2.3-1.7L181.6,60.7L181.6,60.7z"/>
					<path class="st34" d="M180.9,62.2l0.7-1.5l2.1,0.2l0.5-0.8l-3-2.2l-1.4,2.8L180.9,62.2L180.9,62.2z"/>
					<path class="st31" d="M184.9,58.1l2.1,3l-0.5,0.7l-5.3-4l1.6,0.1L184.9,58.1L184.9,58.1z"/>
				</g>
				<g>
					<path class="st62" d="M149.1,40.7l10.4-2.5l10.9-3.2l-0.1-1.6l-0.9-2.3L159,35.8L149.1,40.7L149.1,40.7z"/>
					<path class="st61" d="M169.3,31.1l-11,2.7l-11.1,3.6l0.5,1.4l1.4,1.8L169.3,31.1L169.3,31.1z"/>
					<path class="st72" d="M157.1,31.5l-1,3.3l4.4-1.2L157.1,31.5L157.1,31.5z"/>
					<path class="st72" d="M169.3,31.1l1.8,0.6l1.9,1.4l-2.2,3.5l-0.5-1l0.1-0.7L169.3,31.1L169.3,31.1z"/>
					<path class="st62" d="M169.3,31.1l-0.2-1.8l0.4-2.3l2.2,3.4l1.2,2.8L169.3,31.1z"/>
					<path class="st60" d="M169.5,27l5.9,3.7l-2.4,2.4L169.5,27L169.5,27z"/>
					<path class="st63" d="M169.3,31.1l0.2-4.1l0.1-2.3l-0.8,0.9l-3.5,3.7l0.1,3L169.3,31.1L169.3,31.1z"/>
					<path class="st60" d="M162.6,25.2l-0.3,1.7l1.7,1.5l1.6,0.8l2.7-3l-4.9-3.2L162.6,25.2L162.6,25.2z"/>
					<path class="st62" d="M165.6,29.3l-3.4-2.3l-1.1,2.6l-0.8,4l5-1.4L165.6,29.3L165.6,29.3z"/>
					<path class="st62" d="M156.6,26.6l3.7,0.4l1.9-0.1l1.2-3.9L156.6,26.6L156.6,26.6z"/>
					<path class="st60" d="M162.2,27l-5.6-0.3l1.2,2.7l2.6,4.3C160.4,33.6,162.2,27,162.2,27z"/>
					<path class="st72" d="M146.1,42l4.3,1l-0.7-1.5l-0.7-0.8l-1.4,0.3L146.1,42L146.1,42z"/>
					<path class="st62" d="M160.4,33.6l-3.2-1.8l-2-0.9l-1.2-0.9l0.5-2l0.8-1.6l0.5-1.4l0.8,1.5L160.4,33.6L160.4,33.6z"/>
					<path class="st60" d="M154,30.1l-1.9-0.6l-1.9-1.5l-0.4-1.9l5.4,0.4L154,30.1L154,30.1z"/>
					<path class="st63" d="M154,30.1l-3.7-2l-1.9,2.5l1.2,2.4l2.1,3.1l1.7-3.8L154,30.1L154,30.1z"/>
					<path class="st63" d="M145.4,37.9l-0.8,4.9l4.4-2.1l-1.9-3.3l-0.8,0L145.4,37.9L145.4,37.9z"/>
					<path class="st60" d="M148.4,30.5l-1.7,1.9l-0.6,1.4l2,0.9l3.6,1.3L148.4,30.5L148.4,30.5z"/>
					<path class="st62" d="M148.4,30.5l-5.9,2l3.6,1.4L148.4,30.5L148.4,30.5z"/>
					<path class="st62" d="M146.2,33.8l-3.3,4.8l4.2-1.3l4.6-1.3L146.2,33.8z"/>
					<path class="st60" d="M154,30.1l-2.2,6l2.5,3.2l1.7-4.4l1.2-3L154,30.1L154,30.1z"/>
					<path class="st34" d="M170.3,35l3.6,14.9l-6.6,2.4l-0.9,1.6l-0.6,2l-2.9,2l-2.4,2.5l-4.1-7.6l-2.8-4.1l-2.2-3.8l-0.5-1.9
						l-1.9-2.2C149,40.7,170.3,34.9,170.3,35z"/>
					<path class="st32" d="M155.6,46.3l-1.1-1.9l-1.8,1l1.6,0.8L155.6,46.3L155.6,46.3z"/>
					<path class="st31" d="M157.5,38.4l5.8,15.3h2.4l0.2,2.2l-5.2,4.4l-3.6-6.1l-0.4-1.3l-0.7-0.5l-2.2-3.8l3.5-2.1l-1.1-2.2
						l1.9-1.1l-2.4-4.3L157.5,38.4L157.5,38.4z"/>
					<path class="st31" d="M160.9,40.6h2l2.3,3.1l-0.4-3.7l-1.3-1.9L160.9,40.6L160.9,40.6z"/>
					<path class="st31" d="M166.2,37.4l0.9,4.9l1-3.4l1.7-1L166.2,37.4L166.2,37.4z"/>
					<path class="st63" d="M163.5,38.2l-3.2,1.2l0.6,1.3L163.5,38.2L163.5,38.2z"/>
					<path class="st63" d="M166.2,37.4l3.3-0.9l0.3,1.3C169.8,37.8,166.2,37.4,166.2,37.4z"/>
					<path class="st72" d="M164.7,47.2l2.6-1.7l2.8,0.2l-2.2,1.7L164.7,47.2L164.7,47.2z"/>
					<path class="st65" d="M170.7,45.2l-3.1,2l-4.1,0.1l4.4,1.1L170.7,45.2z"/>
					<path class="st63" d="M155.5,38.9l2.4,4.3l-1.9,1.1l-1-1.6l-3.6,2.1l-2.4-4.1L155.5,38.9L155.5,38.9z"/>
					<path class="st32" d="M167.3,52.2l-5.6,2l4.1,1.7L167.3,52.2L167.3,52.2z"/>
					<path class="st32" d="M157.2,47.6l-0.9,3.3l-1.8-2L157.2,47.6L157.2,47.6z"/>
					<path class="st32" d="M159.8,50.1l-2.8,4.1l-1.1-1.8l1.3-1.4L159.8,50.1z"/>
					<path class="st42" d="M166.2,37.4l-2.7,0.8l1.7,5.6l2.6-0.8L166.2,37.4L166.2,37.4z"/>
					<path class="st32" d="M167.9,43l-0.9,1.7l-1.7-0.9L167.9,43z"/>
				</g>
				<g>
					<path class="st72" d="M157.5,46.3l2.3,3.8l-3.8,2.3l-2.3-3.8L157.5,46.3z M155.1,48.9l1.2,2.1l2.1-1.2l-1.2-2.1L155.1,48.9z"/>
					<path class="st65" d="M155.1,45.6l-0.9,0.5l1.7,2.9l0.9-0.5L155.1,45.6z"/>
				</g>
				<g>
					<path class="st30" d="M163.9,42.2c0,0.5-0.4,0.8-0.8,0.8s-0.8-0.4-0.8-0.8s0.4-0.8,0.8-0.8S163.9,41.7,163.9,42.2z"/>
					<path class="st30" d="M169.4,40.4c0,0.5-0.4,0.8-0.8,0.8s-0.8-0.4-0.8-0.8s0.4-0.8,0.8-0.8S169.4,39.9,169.4,40.4z"/>
				</g>
			</g>
		</g>
	</g>
	<g>
		<defs>
			<rect id="SVGID_00000044885982491876260140000016448625236799666586_" x="187.2" y="35" width="64.4" height="64.4"/>
		</defs>
		<clipPath id="SVGID_00000049929017307030584210000009588549555322314172_">
			<use xlink:href="#SVGID_00000044885982491876260140000016448625236799666586_"  style="overflow:visible;"/>
		</clipPath>
		<g style="clip-path:url(#SVGID_00000049929017307030584210000009588549555322314172_);">
			<g>
				<g class="st7">
					<path class="st30" d="M233.8,97.7l-23.6-1.3l-22.4,1.3l21.4,1.7L233.8,97.7z"/>
				</g>
				<g>
					<path class="st74" d="M226.8,39l-11.6,7.3l-2.3-2.2l-1.3-2.2l1.3-1L226.8,39z"/>
					<path class="st75" d="M206.1,44.1l-1.9,0.4L193,52.3l13.6-2.6l0.1-3.2L206.1,44.1L206.1,44.1z"/>
					<path class="st76" d="M206.6,49.7l8.6-3.4l-3.6-4.4l-2.8,0.7l-2.6,1.5L206.6,49.7z"/>
					<path class="st77" d="M210.9,46l-2.8-4.5l1.4,5.8l2.3,5.1l2,5.2l1.5-1.1l-1.8-4.3L210.9,46L210.9,46z"/>
					<path class="st75" d="M209.5,42.7l-1.8,0.8l1.7,3.8l1.5-1.3L209.5,42.7L209.5,42.7z"/>
					<path class="st77" d="M212.7,41.4l-8.2,3.4l-0.1-3.4l0.8-4.7l0.9-0.7l0.9,0l3.7,2.7C210.7,38.9,212.7,41.4,212.7,41.4z"/>
					<path class="st75" d="M207,36.1l19.8,2.8l-14.1,2.4L207,36.1z"/>
					<path class="st76" d="M205.2,36.8L193,52.3l11.5-7.5L205.2,36.8L205.2,36.8z"/>
					<path class="st75" d="M206.5,34.9l-1.7,0.6l0.4,1.2l1.7-0.6L206.5,34.9L206.5,34.9z"/>
				</g>
				<g>
					<g>
						<path class="st78" d="M199,87.8l0.8,5.3l4.5-0.7l4.6-1.6l-5-1.9l-3.2-0.8L199,87.8L199,87.8z"/>
						<path class="st79" d="M199.8,93.1l3.3,1l1.9,0.2l3.9-3.5L199.8,93.1z"/>
					</g>
					<path class="st80" d="M205,94.3l4.4,3.1l-5.2,0.3l-4.7-0.3l0.3-4.3L205,94.3L205,94.3z"/>
					<path class="st78" d="M199.5,97.4h9.9v1.1h-9.9L199.5,97.4L199.5,97.4z"/>
				</g>
				<path class="st81" d="M230.8,63.9l-4.4,4.5l-2.1,4.6l6.1,3.7l1.9-4.7l-0.2-3.8L230.8,63.9L230.8,63.9z"/>
				<path class="st82" d="M232,68.2h7.1l0.3,1.5l-0.6,2.7l-8.6,4.3L232,68.2z"/>
				<g>
					<path class="st31" d="M238.6,68.2l3.1-0.2l4.4,0.2l-7.2,4.2L238.6,68.2L238.6,68.2z"/>
					<path class="st83" d="M248.9,66.9l-3.9-0.1l-3.4,1.1v0l4.4,0.3L248.9,66.9L248.9,66.9z"/>
				</g>
				<g>
					<path class="st78" d="M190.7,81.2l-1.6-3.1l-1.3-0.2l-0.4,12.1h1L190.7,81.2L190.7,81.2z"/>
					<path class="st79" d="M197.7,77.3l-5.3,1.4l1.3,3.6l2.8,4.7l1.4-3.8l0.3-2.7L197.7,77.3L197.7,77.3z"/>
					<path class="st78" d="M192.4,78.7l-0.9,3.3l0,3l4.9,1.9L192.4,78.7z"/>
					<path class="st80" d="M191.5,85l-3.1,4.9l0.7-11.9l3.4,0.7L191.5,85L191.5,85z"/>
				</g>
				<g>
					<path class="st78" d="M196.6,68.5l1.2,8.8l0.4,3.2l2-6.2l0.7-3.9l-1.8-1.2L196.6,68.5L196.6,68.5z"/>
					<path class="st78" d="M230.8,64l-6.8,11.6l-9.5-3.4l-16.1-6.8l7.2-12.2l6.6,1.8l9.2,2.6L230.8,64L230.8,64z"/>
				</g>
				<g>
					<path class="st47" d="M213.4,57.2l0.5,4l1.2,4l4.1,0.8l1.4,0.6l2.4,0.3l2.1,0.9l2.1-2.4l1.2,0.7l-1.1,3.7l-2.9,4.9l-5.2,19.4
						L196.5,87l4.4-16.5l-4.3-1.9l1.8-3l3.5,1.4l10,0.3l0.1-5.3l-0.2-4.7L213.4,57.2L213.4,57.2z"/>
					<path class="st45" d="M200.8,70.4l8.8,6.9l-2.9,4.9l7.1,8l7.3-2.6l2.6-9.8l-18.5-8.7L200.8,70.4L200.8,70.4z"/>
				</g>
				<path class="st82" d="M211.6,52.4l-6.1,0.8l-4.7,17.2l5.8-1.2l5.2-1.9l0.2-7.2L211.6,52.4L211.6,52.4z"/>
				<g>
					<g>
						<path class="st34" d="M226.6,40.1l5.4,4l5.4-0.6L230.8,64l-6.6-1.4l-3.6,4l-2.8-4.9l-3.6-9.7l1.3,0.1l0.7-0.4l-0.5-4l3.7-1.2
							L220,51l1.9-0.5l-1.6-9.8L226.6,40.1L226.6,40.1z"/>
						<path class="st31" d="M226.6,40.1l-6.4,20.7l3.8,1.2l-1.9,2l-1.6,2.5l-0.8-2.8l-1.4-2l-4.3-9.8l2.1-0.3l2.3-0.2l1.1-0.2
							l2.3-0.5l-1.3-10.2L226.6,40.1L226.6,40.1z"/>
						<path class="st32" d="M218.6,50.2l-0.2-1.8l-1.6,0.2L218.6,50.2L218.6,50.2z"/>
						<path class="st32" d="M216.3,51.7l3.5-0.4l-3.3,1.9L216.3,51.7L216.3,51.7z"/>
						<path class="st32" d="M230,54.2l-1.4,0.6l-0.7-1.3L230,54.2L230,54.2z"/>
						<path class="st31" d="M226.7,47.7l1.5,1.2l-0.3,4.7l1.5-3.3l0.3-2.6L226.7,47.7z"/>
						<path class="st31" d="M231.8,48.3l-1.4,1.9l0.2,2.2l2.2-2.6l1.6-0.2C234.4,49.6,231.8,48.3,231.8,48.3z"/>
						<path class="st32" d="M220.2,60.8l-1.7,1l0.6,2.4l1.4,2.4l1.8-2L224,62L220.2,60.8L220.2,60.8z"/>
						<path class="st39" d="M232.1,47.5l2.6,1.2l-0.3,0.9l-2.6-1.3L232.1,47.5L232.1,47.5z"/>
						<path class="st39" d="M230,46.8l-3.1-0.1l-0.1,0.9h3L230,46.8z"/>
						<g>
							<path class="st31" d="M223.6,54.4l8.4,2.7l-4.3,1.1C227.6,58.1,223.6,54.4,223.6,54.4z"/>
							<path class="st9" d="M225.6,55.6l4.5,1.4l-2.4,0.7L225.6,55.6L225.6,55.6z"/>
						</g>
						<path class="st39" d="M230,36.3l-6.9,0.7l1.6,2.3l1.9,0.8l5.3,4.6l-0.4-4.1L230,36.3L230,36.3z"/>
						<path class="st43" d="M223.2,37l-5.6,0.7l2,2.4l1.6,0.9l5.5-0.8L223.2,37L223.2,37z"/>
						<path class="st39" d="M217.5,37.7l-1.8,10l3.5-0.5l0.5,4.1l2.6-0.3l-1.2-10L217.5,37.7L217.5,37.7z"/>
						<path class="st45" d="M232,44.7l-2-8.4l7.5,7.2C237.5,43.4,232,44.7,232,44.7z"/>
					</g>
					<path class="st42" d="M229.7,47.6l2.1,0.7l-1.8,5.9l-2.1-0.7L229.7,47.6L229.7,47.6z"/>
					<g>
						<path class="st81" d="M214.2,52l0.2,8.3l0.6,4.9l5.5,1.4l-2.1-4.8L214.2,52L214.2,52z"/>
						<path class="st82" d="M224.1,62l-3.4,4.5l2.4,0.6l2.1,0.6l1.7-2.1l1.2-2.4C228,63.2,224.1,62,224.1,62z"/>
						<path class="st46" d="M211.8,67.2l3.3-2L214.2,52l-2.6,0.4L211.8,67.2L211.8,67.2z"/>
						<path class="st46" d="M225.1,67.7l1.9,2.6l3.7-6.3l-2.7-0.8L225.1,67.7L225.1,67.7z"/>
					</g>
				</g>
				<g>
					<g>
						<path class="st76" d="M250.2,57H235v2.7l10.2,0.4l5-0.4V57z"/>
						<path class="st77" d="M250.2,61.8l-6.7,0.3l-8.5-0.3v-2.2h15.2V61.8z"/>
						<path class="st75" d="M250.2,61.8H235V64l7.9,0.2l7.3-0.2V61.8z"/>
						<path class="st77" d="M250.2,65l-7.5,0.1L235,65v-1.1h15.2L250.2,65L250.2,65z"/>
						<path class="st76" d="M250.2,65H235v1.1l8.3,0.2l6.9-0.2V65z"/>
						<path class="st77" d="M250.2,67.2l-7.2,0.2l-8-0.2v-1.1h15.2V67.2z"/>
						<path class="st74" d="M251.3,67.2h-17.5v1.1h17.5L251.3,67.2L251.3,67.2z"/>
						<path class="st77" d="M238,57H235l1.5,1.5L238,57h3l1.5,1.5l1.5-1.5h3l1.5,1.5l1.5-1.5h-3.1l-1.5,1.5l-1.5-1.5H241l-1.5,1.5
							L238,57L238,57z"/>
					</g>
					<g>
						<g>
							<g>
								<path class="st61" d="M249.4,51.8l-0.8-1l-0.8,1l0.8,1.1L249.4,51.8z"/>
								<path class="st61" d="M246.3,51.8l-0.7-1l-0.8,1l0.8,1.1L246.3,51.8z"/>
								<path class="st61" d="M240.2,51.8l-0.8-1l-0.8,1l0.8,1.1L240.2,51.8z"/>
								<path class="st61" d="M237.2,51.8l-0.7-1l-0.8,1l0.8,1.1L237.2,51.8z"/>
							</g>
							<path class="st76" d="M249.1,52.5h-0.9V57h0.9V52.5z"/>
							<path class="st76" d="M239.9,52.5h-0.9V57h0.9V52.5z"/>
							<path class="st76" d="M246,52.5h-0.9V57h0.9V52.5z"/>
							<path class="st76" d="M236.9,52.5H236V57h0.9V52.5z"/>
						</g>
						<g>
							<path class="st74" d="M244.3,55.2h-3.5l1.8,1.8L244.3,55.2z"/>
							<path class="st77" d="M244.3,55.2l-1.8-1.8l-1.8,1.8H244.3z"/>
						</g>
					</g>
				</g>
				<g>
					<path class="st31" d="M214.5,71.6l2.8,1l-1.4,0.9L214.5,71.6z"/>
					<g>
						<path class="st74" d="M220.1,70.8l3,1.2l5,7.9l-13.4,7.9l-1.1-1.8l11.6-6.9C225.3,79.1,220.1,70.9,220.1,70.8z"/>
						<path class="st74" d="M222.3,72.6l0.9-0.5l-3-1.2l0.7,1.2l0.7,0.5L222.3,72.6z"/>
						<path class="st46" d="M220.9,72l1.4,0.6l4.4,7.1l-1.1-0.1l-0.3-0.4l-2.6-3.4L220.9,72L220.9,72z"/>
						<path class="st47" d="M225.3,79.1l1.4,0.5L215,86.6l-1.2-0.5l6.4-4.4L225.3,79.1L225.3,79.1z"/>
						<path class="st75" d="M220.1,70.8l-12.6,7.8L212,87l13.3-7.9C225.3,79.1,220.1,70.8,220.1,70.8z"/>
						<path class="st74" d="M216.4,78.6l-4.2,1l-2.4-2.3l1.7-1.1L216.4,78.6L216.4,78.6z"/>
					</g>
					<path class="st34" d="M214.5,71.6l-2.6,1.1l-1.5,1.3l1.9,4.3l2.6-1.2l2.3-1.9L214.5,71.6L214.5,71.6z"/>
					<path class="st32" d="M217.3,75.3l-0.9,3.4l-4-0.3L217.3,75.3L217.3,75.3z"/>
				</g>
				<path class="st81" d="M200.8,70.4l9.6,3.6l4.1-2.4l-2.7-4.5L200.8,70.4L200.8,70.4z"/>
				<g>
					<path class="st30" d="M232.6,49.9c-0.4,0-0.7,0.3-0.7,0.7c0,0,0,0,0,0c0,0.4,0.3,0.7,0.7,0.7c0.4,0,0.7-0.3,0.7-0.7
						c0,0,0,0,0-0.1C233.3,50.2,233,49.9,232.6,49.9C232.6,49.9,232.6,49.9,232.6,49.9L232.6,49.9z"/>
					<path class="st30" d="M227.7,48.5c-0.4,0-0.7,0.3-0.7,0.7l0,0c0,0.4,0.3,0.7,0.7,0.7s0.7-0.3,0.7-0.7l0,0
						C228.4,48.8,228.1,48.5,227.7,48.5L227.7,48.5z"/>
				</g>
			</g>
		</g>
	</g>
</g>
</svg>
