<?xml version="1.0" encoding="UTF-8"?>
<svg id="_图层_2" data-name="图层 2" xmlns="http://www.w3.org/2000/svg" viewBox="0 0 356.64 303.8">
  <defs>
    <style>
      .cls-1, .cls-2 {
        fill: #fff;
      }

      .cls-1, .cls-3 {
        fill-rule: evenodd;
      }

      .cls-4 {
        fill: #407bff;
      }

      .cls-5, .cls-2 {
        opacity: .2;
      }

      .cls-2 {
        isolation: isolate;
      }

      .cls-3 {
        fill: #d5d5fd;
      }
    </style>
  </defs>
  <g id="_图层_1-2" data-name="图层 1">
    <g id="Stories-maquetados">
      <g id="Izquierda-Copy">
        <g id="estrellas-copy-4">
          <path id="Fill-33" class="cls-1" d="M265.46,186.37c-1.09,.37-.63,2.19,.48,2.1,.23-.02,.45-.13,.62-.28l.12-.07c.88-.7-.4-2.02-1.22-1.74"/>
          <path id="Fill-33-Copy" class="cls-1" d="M319.55,209.58c-1.09,.37-.63,2.19,.48,2.1,.23-.02,.45-.13,.62-.28l.12-.07c.88-.7-.4-2.02-1.22-1.74"/>
          <path id="Fill-33-Copy-2" data-name="Fill-33-Copy" class="cls-1" d="M55.26,145.29c-1.09,.37-.63,2.19,.48,2.1,.23-.02,.45-.13,.62-.28l.12-.07c.88-.7-.4-2.02-1.22-1.74"/>
          <path id="Fill-33-Copy-3" data-name="Fill-33-Copy" class="cls-1" d="M5.26,116.72c-1.09,.37-.63,2.19,.48,2.1,.23-.02,.45-.13,.62-.28l.12-.07c.88-.7-.4-2.02-1.22-1.74"/>
          <path id="Fill-33-Copy-4" data-name="Fill-33-Copy" class="cls-1" d="M119.55,73.86c-1.09,.37-.63,2.19,.48,2.1,.23-.02,.45-.13,.62-.28l.12-.07c.88-.7-.4-2.02-1.22-1.74"/>
          <path id="Fill-33-Copy-5" data-name="Fill-33-Copy" class="cls-1" d="M133.83,52.44c-1.09,.37-.63,2.19,.48,2.1,.23-.02,.45-.13,.62-.28l.12-.07c.88-.7-.4-2.02-1.22-1.74"/>
          <path id="Fill-33-Copy-6" data-name="Fill-33-Copy" class="cls-1" d="M355.13,158.18c-1.09,.37-.63,2.19,.48,2.1,.23-.02,.45-.13,.62-.28l.12-.07c.88-.7-.4-2.02-1.22-1.74"/>
          <path id="Fill-33-Copy-7" data-name="Fill-33-Copy" class="cls-1" d="M338,295.24c-1.09,.37-.63,2.19,.48,2.1,.23-.02,.45-.13,.62-.28l.12-.07c.88-.7-.4-2.02-1.22-1.74"/>
          <path id="Fill-33-Copy-8" data-name="Fill-33-Copy" class="cls-1" d="M240.47,300.51c-1.09,.37-.63,2.19,.48,2.1,.23-.02,.45-.13,.62-.28l.12-.07c.88-.7-.4-2.02-1.22-1.74"/>
          <path id="Fill-33-Copy-9" data-name="Fill-33-Copy" class="cls-1" d="M240.47,300.51c-1.09,.37-.63,2.19,.48,2.1,.23-.02,.45-.13,.62-.28l.12-.07c.88-.7-.4-2.02-1.22-1.74"/>
          <path id="Fill-41" class="cls-1" d="M242.81,75.91c-1.09,.37-.63,2.19,.48,2.1,.23-.02,.45-.13,.62-.28l.12-.07c.88-.7-.4-2.02-1.22-1.74"/>
          <path id="Fill-43" class="cls-1" d="M312.04,84.71c-1.09,.37-.63,2.19,.48,2.1,.23-.02,.45-.13,.62-.28l.12-.07c.88-.7-.4-2.02-1.22-1.74"/>
          <path id="Fill-45" class="cls-1" d="M162.64,181.27c-1.09,.37-.63,2.19,.48,2.1,.23-.02,.45-.13,.62-.28l.12-.07c.88-.7-.4-2.02-1.22-1.75"/>
          <path id="Fill-49" class="cls-1" d="M149.89,106.58c-1.09,.37-.63,2.19,.48,2.1,.23-.02,.45-.13,.62-.28l.12-.07c.88-.7-.4-2.02-1.22-1.74"/>
          <path id="Fill-49-Copy-3" class="cls-1" d="M.62,1.36C-.47,1.73,0,3.55,1.1,3.45c.23-.02,.45-.13,.62-.28l.12-.07c.88-.7-.4-2.02-1.22-1.74"/>
          <path id="Fill-57" class="cls-3" d="M214.06,147.21c-.41-.09-.83-.11-1.25-.12-.14,0-.29,0-.43,0,0-.36-.02-.73-.05-1.09-.05-.6-.13-1.62-.83-1.82-.11-.03-.42,1.11-.44,1.22-.09,.41-.11,.83-.12,1.25,0,.14,0,.29,0,.43-.34,0-.69,.02-1.03,.06-.6,.07-1.67,.1-1.88,.81-.03,.1,1.11,.42,1.22,.44,.54,.12,1.12,.12,1.69,.13,0,.35,.02,.69,.07,1.03,.07,.6,.1,1.67,.81,1.88,.1,.03,.42-1.11,.44-1.22,.12-.55,.12-1.12,.13-1.69,.37,0,.73-.02,1.09-.05,.6-.05,1.62-.13,1.82-.83,.03-.1-1.11-.42-1.22-.44"/>
          <path id="Fill-57-2" data-name="Fill-57" class="cls-3" d="M214.06,147.21c-.41-.09-.83-.11-1.25-.12-.14,0-.29,0-.43,0,0-.36-.02-.73-.05-1.09-.05-.6-.13-1.62-.83-1.82-.11-.03-.42,1.11-.44,1.22-.09,.41-.11,.83-.12,1.25,0,.14,0,.29,0,.43-.34,0-.69,.02-1.03,.06-.6,.07-1.67,.1-1.88,.81-.03,.1,1.11,.42,1.22,.44,.54,.12,1.12,.12,1.69,.13,0,.35,.02,.69,.07,1.03,.07,.6,.1,1.67,.81,1.88,.1,.03,.42-1.11,.44-1.22,.12-.55,.12-1.12,.13-1.69,.37,0,.73-.02,1.09-.05,.6-.05,1.62-.13,1.82-.83,.03-.1-1.11-.42-1.22-.44"/>
          <path id="Fill-49-Copy" class="cls-1" d="M224.55,110.5c-1.34,.46-.77,2.7,.59,2.59,.28-.02,.55-.16,.76-.35l.15-.09c1.09-.86-.49-2.49-1.5-2.15"/>
          <path id="Fill-49-Copy-2" class="cls-1" d="M328.92,29.04c-1.34,.46-.77,2.7,.59,2.59,.28-.02,.55-.16,.76-.35l.15-.09c1.09-.86-.49-2.49-1.5-2.15"/>
          <path id="Fill-51" class="cls-1" d="M171.75,92c-1.09,.37-.63,2.19,.48,2.1,.23-.02,.45-.13,.62-.28l.12-.07c.88-.7-.4-2.02-1.22-1.74"/>
          <path id="Fill-57-3" data-name="Fill-57" class="cls-3" d="M214.06,147.21c-.41-.09-.83-.11-1.25-.12-.14,0-.29,0-.43,0,0-.36-.02-.73-.05-1.09-.05-.6-.13-1.62-.83-1.82-.11-.03-.42,1.11-.44,1.22-.09,.41-.11,.83-.12,1.25,0,.14,0,.29,0,.43-.34,0-.69,.02-1.03,.06-.6,.07-1.67,.1-1.88,.81-.03,.1,1.11,.42,1.22,.44,.54,.12,1.12,.12,1.69,.13,0,.35,.02,.69,.07,1.03,.07,.6,.1,1.67,.81,1.88,.1,.03,.42-1.11,.44-1.22,.12-.55,.12-1.12,.13-1.69,.37,0,.73-.02,1.09-.05,.6-.05,1.62-.13,1.82-.83,.03-.1-1.11-.42-1.22-.44"/>
          <path id="Fill-57-4" data-name="Fill-57" class="cls-3" d="M266.99,111.11c-.41-.09-.83-.11-1.25-.12-.14,0-.29,0-.43,0,0-.36-.02-.73-.05-1.09-.05-.6-.13-1.62-.83-1.82-.11-.03-.42,1.11-.44,1.22-.09,.41-.11,.83-.12,1.25,0,.14,0,.29,0,.43-.34,0-.69,.02-1.03,.06-.6,.07-1.67,.1-1.88,.81-.03,.1,1.11,.42,1.22,.44,.54,.12,1.12,.12,1.69,.13,0,.35,.02,.69,.07,1.03,.07,.6,.1,1.67,.81,1.88,.1,.03,.42-1.11,.44-1.22,.12-.55,.12-1.12,.13-1.69,.37,0,.73-.02,1.09-.05,.6-.05,1.62-.13,1.82-.83,.03-.1-1.11-.42-1.22-.44"/>
          <path id="Fill-57-Copy-3" class="cls-3" d="M89.08,22.81c-.41-.09-.83-.11-1.25-.12-.14,0-.29,0-.43,0,0-.36-.02-.73-.05-1.09-.05-.6-.13-1.62-.83-1.82-.11-.03-.42,1.11-.44,1.22-.09,.41-.11,.83-.12,1.25,0,.14,0,.29,0,.43-.34,0-.69,.02-1.03,.06-.6,.07-1.67,.1-1.88,.81-.03,.1,1.11,.42,1.22,.44,.54,.12,1.12,.12,1.69,.13,0,.35,.02,.69,.07,1.03,.07,.6,.1,1.67,.81,1.88,.1,.03,.42-1.11,.44-1.22,.12-.55,.12-1.12,.13-1.69,.37,0,.73-.02,1.09-.05,.6-.05,1.62-.13,1.82-.83,.03-.1-1.11-.42-1.22-.44"/>
          <path id="Fill-57-Copy-4" class="cls-3" d="M52.18,299.56c-.41-.09-.83-.11-1.25-.12-.14,0-.29,0-.43,0,0-.36-.02-.73-.05-1.09-.05-.6-.13-1.62-.83-1.82-.11-.03-.42,1.11-.44,1.22-.09,.41-.11,.83-.12,1.25,0,.14,0,.29,0,.43-.34,0-.69,.02-1.03,.06-.6,.07-1.67,.1-1.88,.81-.03,.1,1.11,.42,1.22,.44,.54,.12,1.12,.12,1.69,.13,0,.35,.02,.69,.07,1.03,.07,.6,.1,1.67,.81,1.88,.1,.03,.42-1.11,.44-1.22,.12-.55,.12-1.12,.13-1.69,.37,0,.73-.02,1.09-.05,.6-.05,1.62-.13,1.82-.83,.03-.1-1.11-.42-1.22-.44"/>
          <path id="Fill-57-Copy-5" class="cls-3" d="M330.25,234.99c-.41-.09-.83-.11-1.25-.12-.14,0-.29,0-.43,0,0-.36-.02-.73-.05-1.09-.05-.6-.13-1.62-.83-1.82-.11-.03-.42,1.11-.44,1.22-.09,.41-.11,.83-.12,1.25,0,.14,0,.29,0,.43-.34,0-.69,.02-1.03,.06-.6,.07-1.67,.1-1.88,.81-.03,.1,1.11,.42,1.22,.44,.54,.12,1.12,.12,1.69,.13,0,.35,.02,.69,.07,1.03,.07,.6,.1,1.67,.81,1.88,.1,.03,.42-1.11,.44-1.22,.12-.55,.12-1.12,.13-1.69,.37,0,.73-.02,1.09-.05,.6-.05,1.62-.13,1.82-.83,.03-.1-1.11-.42-1.22-.44"/>
          <path id="Fill-57-Copy-6" class="cls-3" d="M306.53,145.37c-.41-.09-.83-.11-1.25-.12-.14,0-.29,0-.43,0,0-.36-.02-.73-.05-1.09-.05-.6-.13-1.62-.83-1.82-.11-.03-.42,1.11-.44,1.22-.09,.41-.11,.83-.12,1.25,0,.14,0,.29,0,.43-.34,0-.69,.02-1.03,.06-.6,.07-1.67,.1-1.88,.81-.03,.1,1.11,.42,1.22,.44,.54,.12,1.12,.12,1.69,.13,0,.35,.02,.69,.07,1.03,.07,.6,.1,1.67,.81,1.88,.1,.03,.42-1.11,.44-1.22,.12-.55,.12-1.12,.13-1.69,.37,0,.73-.02,1.09-.05,.6-.05,1.62-.13,1.82-.83,.03-.1-1.11-.42-1.22-.44"/>
          <path id="Fill-57-Copy-7" class="cls-3" d="M342.11,83.43c-.41-.09-.83-.11-1.25-.12-.14,0-.29,0-.43,0,0-.36-.02-.73-.05-1.09-.05-.6-.13-1.62-.83-1.82-.11-.03-.42,1.11-.44,1.22-.09,.41-.11,.83-.12,1.25,0,.14,0,.29,0,.43-.34,0-.69,.02-1.03,.06-.6,.07-1.67,.1-1.88,.81-.03,.1,1.11,.42,1.22,.44,.54,.12,1.12,.12,1.69,.13,0,.35,.02,.69,.07,1.03,.07,.6,.1,1.67,.81,1.88,.1,.03,.42-1.11,.44-1.22,.12-.55,.12-1.12,.13-1.69,.37,0,.73-.02,1.09-.05,.6-.05,1.62-.13,1.82-.83,.03-.1-1.11-.42-1.22-.44"/>
          <path id="Fill-57-Copy-8" class="cls-3" d="M334.2,54.44c-.41-.09-.83-.11-1.25-.12-.14,0-.29,0-.43,0,0-.36-.02-.73-.05-1.09-.05-.6-.13-1.62-.83-1.82-.11-.03-.42,1.11-.44,1.22-.09,.41-.11,.83-.12,1.25,0,.14,0,.29,0,.43-.34,0-.69,.02-1.03,.06-.6,.07-1.67,.1-1.88,.81-.03,.1,1.11,.42,1.22,.44,.54,.12,1.12,.12,1.69,.13,0,.35,.02,.69,.07,1.03,.07,.6,.1,1.67,.81,1.88,.1,.03,.42-1.11,.44-1.22,.12-.55,.12-1.12,.13-1.69,.37,0,.73-.02,1.09-.05,.6-.05,1.62-.13,1.82-.83,.03-.1-1.11-.42-1.22-.44"/>
          <path id="Fill-57-Copy-9" class="cls-3" d="M241.95,3.04c-.41-.09-.83-.11-1.25-.12-.14,0-.29,0-.43,0,0-.36-.02-.73-.05-1.09-.05-.6-.13-1.62-.83-1.82-.11-.03-.42,1.11-.44,1.22-.09,.41-.11,.83-.12,1.25,0,.14,0,.29,0,.43-.34,0-.69,.02-1.03,.06-.6,.07-1.67,.1-1.88,.81-.03,.1,1.11,.42,1.22,.44,.54,.12,1.12,.12,1.69,.13,0,.35,.02,.69,.07,1.03,.07,.6,.1,1.67,.81,1.88,.1,.03,.42-1.11,.44-1.22,.12-.55,.12-1.12,.13-1.69,.37,0,.73-.02,1.09-.05,.6-.05,1.62-.13,1.82-.83,.03-.1-1.11-.42-1.22-.44"/>
          <path id="Fill-57-Copy" class="cls-3" d="M278.85,277.16c-.41-.09-.83-.11-1.25-.12-.14,0-.29,0-.43,0,0-.36-.02-.73-.05-1.09-.05-.6-.13-1.62-.83-1.82-.11-.03-.42,1.11-.44,1.22-.09,.41-.11,.83-.12,1.25,0,.14,0,.29,0,.43-.34,0-.69,.02-1.03,.06-.6,.07-1.67,.1-1.88,.81-.03,.1,1.11,.42,1.22,.44,.54,.12,1.12,.12,1.69,.13,0,.35,.02,.69,.07,1.03,.07,.6,.1,1.67,.81,1.88,.1,.03,.42-1.11,.44-1.22,.12-.55,.12-1.12,.13-1.69,.37,0,.73-.02,1.09-.05,.6-.05,1.62-.13,1.82-.83,.03-.1-1.11-.42-1.22-.44"/>
          <path id="Fill-59" class="cls-3" d="M62.26,90.93c-.41-.09-.83-.11-1.25-.12-.14,0-.29,0-.43,0,0-.36-.02-.73-.05-1.09-.05-.6-.13-1.62-.83-1.82-.11-.03-.42,1.11-.44,1.22-.09,.41-.11,.83-.12,1.25,0,.14,0,.29,0,.43-.34,0-.69,.02-1.03,.06-.6,.07-1.67,.1-1.88,.81-.03,.1,1.11,.42,1.22,.44,.54,.12,1.12,.12,1.69,.13,0,.35,.02,.69,.07,1.03,.07,.6,.1,1.67,.81,1.88,.1,.03,.42-1.11,.44-1.22,.12-.55,.12-1.12,.13-1.69,.37,0,.73-.02,1.09-.05,.6-.05,1.62-.13,1.82-.83,.03-.1-1.11-.42-1.22-.44"/>
          <path id="Fill-61" class="cls-3" d="M25.82,178.05c-.41-.09-.83-.11-1.25-.12-.14,0-.29,0-.43,0,0-.36-.02-.73-.05-1.09-.05-.6-.13-1.62-.83-1.83-.11-.03-.42,1.11-.44,1.22-.09,.41-.11,.83-.12,1.25,0,.14,0,.29,0,.43-.34,0-.69,.02-1.03,.06-.6,.07-1.67,.1-1.88,.81-.03,.11,1.11,.42,1.22,.44,.54,.12,1.12,.12,1.69,.13,0,.34,.02,.69,.07,1.03,.07,.6,.1,1.67,.81,1.88,.1,.03,.42-1.11,.44-1.22,.12-.54,.12-1.12,.13-1.68,.37,0,.73-.02,1.09-.05,.6-.05,1.62-.13,1.82-.83,.03-.1-1.11-.42-1.22-.44"/>
          <path id="Fill-71" class="cls-3" d="M107.97,192.68c-.41-.09-.83-.11-1.25-.12-.15,0-.29,0-.43,0,0-.37-.02-.73-.05-1.09-.05-.6-.13-1.62-.83-1.83-.11-.03-.42,1.11-.44,1.22-.09,.41-.11,.83-.12,1.25,0,.14,0,.29,0,.43-.34,0-.69,.02-1.03,.06-.6,.07-1.67,.1-1.88,.81-.03,.11,1.11,.42,1.22,.44,.54,.12,1.12,.12,1.69,.13,0,.34,.02,.69,.07,1.03,.07,.6,.1,1.67,.81,1.88,.1,.03,.42-1.11,.44-1.22,.11-.54,.12-1.12,.13-1.69,.36,0,.73-.02,1.09-.05,.6-.05,1.62-.13,1.83-.83,.03-.1-1.11-.42-1.22-.44"/>
        </g>
        <g id="Group-7-Copy" class="cls-5">
          <circle id="Oval" class="cls-4" cx="284.09" cy="107.67" r="10.52"/>
          <path id="Path" class="cls-4" d="M290.74,99.52c-4.82-1.49-10.02,.66-12.38,5.11-2.37,4.45-1.23,9.96,2.7,13.12,.98,.3,2.01,.45,3.03,.45,4.46,.02,8.44-2.78,9.94-6.99s.18-8.89-3.29-11.69h0Z"/>
        </g>
        <g id="Group-8-Copy-2">
          <circle id="Oval-2" data-name="Oval" class="cls-4" cx="143.98" cy="191.13" r="7.55"/>
          <path id="Path-2" data-name="Path" class="cls-2" d="M139.99,189.83c1.08-3.35,4.35-5.51,7.86-5.19-.48-.3-1-.53-1.54-.71-3.91-1.1-8,1.08-9.24,4.95-1.25,3.87,.79,8.03,4.61,9.42,.54,.18,1.11,.29,1.68,.34-3.04-1.79-4.43-5.45-3.36-8.81h0Z"/>
        </g>
      </g>
    </g>
    <path id="Fill-57-Copy-5-2" data-name="Fill-57-Copy-5" class="cls-3" d="M153.63,125.91c-.41-.09-.83-.11-1.25-.12-.14,0-.29,0-.43,0,0-.36-.02-.73-.05-1.09-.05-.6-.13-1.62-.83-1.82-.11-.03-.42,1.11-.44,1.22-.09,.41-.11,.83-.12,1.25,0,.14,0,.29,0,.43-.34,0-.69,.02-1.03,.06-.6,.07-1.67,.1-1.88,.81-.03,.1,1.11,.42,1.22,.44,.54,.12,1.12,.12,1.69,.13,0,.35,.02,.69,.07,1.03,.07,.6,.1,1.67,.81,1.88,.1,.03,.42-1.11,.44-1.22,.12-.55,.12-1.12,.13-1.69,.37,0,.73-.02,1.09-.05,.6-.05,1.62-.13,1.82-.83,.03-.1-1.11-.42-1.22-.44"/>
    <path id="Fill-57-Copy-5-3" data-name="Fill-57-Copy-5" class="cls-3" d="M179.63,70.91c-.41-.09-.83-.11-1.25-.12-.14,0-.29,0-.43,0,0-.36-.02-.73-.05-1.09-.05-.6-.13-1.62-.83-1.82-.11-.03-.42,1.11-.44,1.22-.09,.41-.11,.83-.12,1.25,0,.14,0,.29,0,.43-.34,0-.69,.02-1.03,.06-.6,.07-1.67,.1-1.88,.81-.03,.1,1.11,.42,1.22,.44,.54,.12,1.12,.12,1.69,.13,0,.35,.02,.69,.07,1.03,.07,.6,.1,1.67,.81,1.88,.1,.03,.42-1.11,.44-1.22,.12-.55,.12-1.12,.13-1.69,.37,0,.73-.02,1.09-.05,.6-.05,1.62-.13,1.82-.83,.03-.1-1.11-.42-1.22-.44"/>
    <path id="Fill-57-Copy-5-4" data-name="Fill-57-Copy-5" class="cls-3" d="M153.63,167.91c-.41-.09-.83-.11-1.25-.12-.14,0-.29,0-.43,0,0-.36-.02-.73-.05-1.09-.05-.6-.13-1.62-.83-1.82-.11-.03-.42,1.11-.44,1.22-.09,.41-.11,.83-.12,1.25,0,.14,0,.29,0,.43-.34,0-.69,.02-1.03,.06-.6,.07-1.67,.1-1.88,.81-.03,.1,1.11,.42,1.22,.44,.54,.12,1.12,.12,1.69,.13,0,.35,.02,.69,.07,1.03,.07,.6,.1,1.67,.81,1.88,.1,.03,.42-1.11,.44-1.22,.12-.55,.12-1.12,.13-1.69,.37,0,.73-.02,1.09-.05,.6-.05,1.62-.13,1.82-.83,.03-.1-1.11-.42-1.22-.44"/>
    <path id="Fill-57-Copy-5-5" data-name="Fill-57-Copy-5" class="cls-3" d="M157.27,264.6c-.41-.09-.83-.11-1.25-.12-.14,0-.29,0-.43,0,0-.36-.02-.73-.05-1.09-.05-.6-.13-1.62-.83-1.82-.11-.03-.42,1.11-.44,1.22-.09,.41-.11,.83-.12,1.25,0,.14,0,.29,0,.43-.34,0-.69,.02-1.03,.06-.6,.07-1.67,.1-1.88,.81-.03,.1,1.11,.42,1.22,.44,.54,.12,1.12,.12,1.69,.13,0,.35,.02,.69,.07,1.03,.07,.6,.1,1.67,.81,1.88,.1,.03,.42-1.11,.44-1.22,.12-.55,.12-1.12,.13-1.69,.37,0,.73-.02,1.09-.05,.6-.05,1.62-.13,1.82-.83,.03-.1-1.11-.42-1.22-.44"/>
  </g>
</svg>